<svg width="23" height="23" viewBox="0 0 23 23" fill="none" xmlns="http://www.w3.org/2000/svg">
<path d="M3.10443 20.8586H6.7867V21.901C6.7867 22.4788 7.19458 22.8867 7.77241 22.8867C8.35025 22.8867 8.75813 22.4788 8.75813 21.901V20.8586H10.5709V21.901C10.5709 22.4788 10.9788 22.8867 11.5567 22.8867C12.1345 22.8867 12.5424 22.4788 12.5424 21.901V20.8586H14.3665V21.901C14.3665 22.4788 14.7744 22.8867 15.3522 22.8867C15.93 22.8867 16.3379 22.4788 16.3379 21.901V20.8586H19.9975C20.5754 20.8586 20.9606 20.4734 20.9606 19.8956V16.1906H22.0143C22.5921 16.1906 23 15.7828 23 15.2049C23 14.6271 22.5921 14.2192 22.0143 14.2192H20.9606V12.4177H22.0143C22.5921 12.4177 23 12.0099 23 11.432C23 10.8542 22.5921 10.4463 22.0143 10.4463H20.9606V8.6335H22.0143C22.5921 8.6335 23 8.22562 23 7.64778C23 7.06995 22.5921 6.66207 22.0143 6.66207H20.9606V3.00246C20.9606 2.42463 20.5754 2.02808 19.9975 2.02808H16.3153V0.985714C16.3153 0.407882 15.9074 0 15.3296 0C14.7517 0 14.3438 0.407882 14.3438 0.985714V2.02808H12.5424V0.985714C12.5424 0.407882 12.1345 0 11.5567 0C10.9788 0 10.5709 0.407882 10.5709 0.985714V2.02808H8.75813V0.985714C8.75813 0.407882 8.35025 0 7.77241 0C7.19458 0 6.7867 0.407882 6.7867 0.985714V2.02808H3.10443C2.5266 2.02808 2.14138 2.42463 2.14138 3.00246V6.6734H0.985714C0.407882 6.6734 0 7.08128 0 7.65911C0 8.23695 0.407882 8.64483 0.985714 8.64483H2.14138V10.4576H0.985714C0.407882 10.4576 0 10.8655 0 11.4433C0 12.0212 0.407882 12.4291 0.985714 12.4291H2.14138V14.2305H0.985714C0.407882 14.2305 0 14.6384 0 15.2163C0 15.7941 0.407882 16.202 0.985714 16.202H2.14138V19.8956C2.14138 20.4734 2.5266 20.8586 3.10443 20.8586ZM4.67931 18.6379C4.45271 18.6379 4.36207 18.5473 4.36207 18.3207V4.57734C4.36207 4.33941 4.45271 4.24877 4.67931 4.24877H18.4227C18.6493 4.24877 18.7512 4.33941 18.7512 4.57734V18.3207C18.7512 18.5473 18.6493 18.6379 18.4227 18.6379H4.67931ZM7.4665 16.3833H15.6355C16.202 16.3833 16.4852 16.1 16.4852 15.5222V7.36453C16.4852 6.79803 16.202 6.51478 15.6355 6.51478H7.4665C6.9 6.51478 6.61675 6.79803 6.61675 7.36453V15.5222C6.61675 16.1 6.9 16.3833 7.4665 16.3833ZM8.53153 14.7177C8.37291 14.7177 8.27094 14.6158 8.27094 14.4571V8.42956C8.27094 8.27094 8.37291 8.16897 8.53153 8.16897H14.5704C14.7291 8.16897 14.831 8.27094 14.831 8.42956V14.4571C14.831 14.6158 14.7291 14.7177 14.5704 14.7177H8.53153Z" fill="url(#paint0_linear_291_583)"/>
<defs>
<linearGradient id="paint0_linear_291_583" x1="23" y1="-1.36415e-06" x2="0.113578" y2="22.9997" gradientUnits="userSpaceOnUse">
<stop stop-color="#001F76"/>
<stop offset="1" stop-color="#00E3AE"/>
</linearGradient>
</defs>
</svg>
