<svg width="33" height="25" viewBox="0 0 33 25" fill="none" xmlns="http://www.w3.org/2000/svg">
<path d="M32.9415 14.8761V20.9159C32.6687 20.9423 32.4829 21.1334 32.2826 21.2797C30.0669 22.8428 27.6336 24.0719 25.0606 24.9275C24.627 25.0725 24.3332 25.0211 24.0959 24.6099C23.7309 23.9773 23.3448 23.3553 22.956 22.7359C22.7254 22.3695 22.8018 22.1534 23.209 21.9821C23.7981 21.7356 24.3701 21.4444 24.942 21.1584C25.0962 21.082 25.3295 21.0003 25.2451 20.771C25.2076 20.6557 25.1298 20.5579 25.0259 20.4954C24.922 20.433 24.7991 20.4101 24.6798 20.431C24.5187 20.4652 24.3624 20.5192 24.2146 20.5917C19.0577 22.7517 13.8996 22.7293 8.74275 20.5917C8.60921 20.5325 8.47184 20.4823 8.33158 20.4415C8.21416 20.4107 8.08963 20.4227 7.98026 20.4754C7.87088 20.528 7.7838 20.6178 7.73458 20.7288C7.59489 20.9924 7.86637 21.0767 8.02847 21.1597C8.56484 21.4339 9.10912 21.6935 9.65735 21.9505C10.2319 22.214 10.2728 22.2812 9.95256 22.8466C9.63231 23.412 9.26595 23.9273 8.95625 24.4874C8.67686 24.9908 8.34344 25.1068 7.7873 24.9012C6.32211 24.3813 4.89529 23.7591 3.5174 23.039C2.29046 22.3801 1.15314 21.5894 0 20.8118V15.3203C0.197681 15.1661 0.195045 14.9394 0.220084 14.7219C0.727464 10.2913 2.32868 6.26648 4.72457 2.53032C4.91558 2.2203 5.19643 1.97576 5.52978 1.82921C7.11975 1.12355 8.77799 0.583026 10.4784 0.21614C12.0322 -0.114646 11.7739 -0.234572 12.4552 1.13865C12.6529 1.53401 12.8782 1.70533 13.3487 1.64208C15.2201 1.41196 17.1111 1.38721 18.9879 1.56827C20.423 1.69215 20.1278 1.95705 20.7617 0.575918C21.0003 0.0566774 21.3166 -0.0447986 21.8463 0.0685383C23.7098 0.459471 25.5319 1.02696 27.2878 1.76332C27.6951 1.9282 28.0406 2.21617 28.2762 2.58699C30.601 6.14524 32.1231 10.0119 32.703 14.2343C32.7346 14.4663 32.7188 14.718 32.9415 14.8761ZM24.917 13.9721C24.917 13.0654 24.7391 12.4209 24.3635 11.8358C23.1892 10.0185 20.7406 10.0185 19.5677 11.8384C18.6742 13.2262 18.8785 15.1516 20.0422 16.2823C20.8619 17.0796 22.019 17.3208 23.0311 16.8556C24.349 16.2573 24.8511 15.1423 24.917 13.9787V13.9721ZM13.9549 13.6149C13.9565 13.4783 13.9481 13.3418 13.9299 13.2064C13.7546 12.0625 13.1787 11.1808 12.1165 10.7024C11.6847 10.493 11.2025 10.4101 10.7256 10.4633C10.2486 10.5165 9.79652 10.7036 9.42145 11.0029C7.91645 12.1336 7.63838 14.4834 8.82446 15.9489C9.8524 17.2298 11.5604 17.4526 12.7543 16.4497C13.5912 15.7538 13.9839 14.8458 13.9602 13.6176L13.9549 13.6149Z" fill="white"/>
</svg>
