<svg width="282" height="52" viewBox="0 0 282 52" fill="none" xmlns="http://www.w3.org/2000/svg">
<g clip-path="url(#clip0_291_359)">
<path opacity="0.5" d="M69.8452 26C73.8268 26 77.0546 22.7326 77.0546 18.7022C77.0546 14.6717 73.8268 11.4044 69.8452 11.4044C65.8636 11.4044 62.6359 14.6717 62.6359 18.7022C62.6359 22.7326 65.8636 26 69.8452 26Z" fill="white"/>
<path opacity="0.5" d="M77.0546 33.2978C81.0362 33.2978 84.2639 30.0305 84.2639 26C84.2639 21.9695 81.0362 18.7022 77.0546 18.7022C73.073 18.7022 69.8452 21.9695 69.8452 26C69.8452 30.0305 73.073 33.2978 77.0546 33.2978Z" fill="white"/>
<path opacity="0.5" d="M62.6359 33.2978C66.6175 33.2978 69.8452 30.0305 69.8452 26C69.8452 21.9695 66.6175 18.7022 62.6359 18.7022C58.6543 18.7022 55.4265 21.9695 55.4265 26C55.4265 30.0305 58.6543 33.2978 62.6359 33.2978Z" fill="white"/>
<path opacity="0.5" d="M69.8452 40.5956C73.8268 40.5956 77.0546 37.3283 77.0546 33.2978C77.0546 29.2673 73.8268 26 69.8452 26C65.8636 26 62.6359 29.2673 62.6359 33.2978C62.6359 37.3283 65.8636 40.5956 69.8452 40.5956Z" fill="white"/>
<path opacity="0.5" d="M64.7457 28.1357C68.7273 28.1357 71.955 24.8684 71.955 20.8379C71.955 16.8074 68.7273 13.5401 64.7457 13.5401C60.7641 13.5401 57.5363 16.8074 57.5363 20.8379C57.5363 24.8684 60.7641 28.1357 64.7457 28.1357Z" fill="white"/>
<path opacity="0.5" d="M74.9413 28.1357C78.9229 28.1357 82.1507 24.8684 82.1507 20.8379C82.1507 16.8074 78.9229 13.5401 74.9413 13.5401C70.9597 13.5401 67.7319 16.8074 67.7319 20.8379C67.7319 24.8684 70.9597 28.1357 74.9413 28.1357Z" fill="white"/>
<path opacity="0.5" d="M64.7457 38.4564C68.7273 38.4564 71.955 35.1891 71.955 31.1586C71.955 27.1282 68.7273 23.8608 64.7457 23.8608C60.7641 23.8608 57.5363 27.1282 57.5363 31.1586C57.5363 35.1891 60.7641 38.4564 64.7457 38.4564Z" fill="white"/>
<path opacity="0.5" d="M74.9413 38.4564C78.9229 38.4564 82.1507 35.1891 82.1507 31.1586C82.1507 27.1282 78.9229 23.8608 74.9413 23.8608C70.9597 23.8608 67.7319 27.1282 67.7319 31.1586C67.7319 35.1891 70.9597 38.4564 74.9413 38.4564Z" fill="white"/>
<path d="M69.8452 0C64.7652 0 59.7993 1.52487 55.5755 4.38179C51.3516 7.23871 48.0595 11.2994 46.1155 16.0502C44.1715 20.8011 43.6628 26.0288 44.6539 31.0723C45.6449 36.1159 48.0912 40.7486 51.6833 44.3848C55.2754 48.0209 59.852 50.4972 64.8343 51.5004C69.8167 52.5036 74.9811 51.9887 79.6744 50.0209C84.3677 48.053 88.3791 44.7205 91.2014 40.4448C94.0237 36.1691 95.5301 31.1423 95.5301 26C95.5301 19.1044 92.824 12.4912 88.0072 7.61522C83.1903 2.73928 76.6573 0 69.8452 0ZM69.8452 44.2463C66.2822 44.2463 62.7993 43.1768 59.8368 41.173C56.8742 39.1692 54.5653 36.3212 53.2018 32.989C51.8383 29.6569 51.4815 25.9903 52.1766 22.4529C52.8717 18.9155 54.5875 15.6662 57.1069 13.1159C59.6263 10.5656 62.8362 8.82877 66.3307 8.12514C69.8252 7.42151 73.4474 7.78264 76.7392 9.16287C80.0309 10.5431 82.8444 12.8804 84.8239 15.8793C86.8034 18.8781 87.86 22.4038 87.86 26.0105C87.8572 30.8451 85.958 35.4808 82.5799 38.8984C79.2018 42.3159 74.6212 44.2358 69.8452 44.2358V44.2463Z" fill="url(#paint0_radial_291_359)"/>
<path d="M25.6849 44.2358C22.6309 44.2373 19.6268 43.453 16.9546 41.9564C14.2824 40.4598 12.0299 38.3001 10.4088 35.6802C8.78769 33.0603 7.85112 30.0663 7.68711 26.9794C7.5231 23.8925 8.13703 20.814 9.47121 18.0332C10.8054 15.2525 12.816 12.8607 15.3142 11.0826C17.8124 9.30451 20.7162 8.1985 23.7526 7.86847C26.7891 7.53843 29.8586 7.99522 32.6727 9.1959C35.4869 10.3966 37.9533 12.3018 39.8403 14.7324C40.7978 12.1386 42.0784 9.67911 43.6511 7.41356C40.0368 3.8348 35.4596 1.41539 30.4929 0.458503C25.5262 -0.498386 20.391 0.0498076 15.7307 2.03439C11.0704 4.01897 7.09243 7.35166 4.29515 11.6149C1.49787 15.8781 0.0057373 20.8821 0.0057373 26C0.0057373 31.1179 1.49787 36.122 4.29515 40.3852C7.09243 44.6484 11.0704 47.9811 15.7307 49.9656C20.391 51.9502 25.5262 52.4984 30.4929 51.5415C35.4596 50.5846 40.0368 48.1652 43.6511 44.5865C42.0784 42.3209 40.7978 39.8614 39.8403 37.2676C38.1592 39.4418 36.0106 41.1995 33.5577 42.4069C31.1049 43.6144 28.4124 44.2398 25.6849 44.2358Z" fill="url(#paint1_radial_291_359)"/>
<path d="M151.629 26V52H143.744C143.817 45.6876 143.914 36.1735 143.969 26C143.973 25.038 143.897 24.0773 143.744 23.1279C143.08 18.8322 140.922 14.9181 137.658 12.0912C134.395 9.26441 130.241 7.71092 125.946 7.71092C121.65 7.71092 117.497 9.26441 114.233 12.0912C110.97 14.9181 108.811 18.8322 108.147 23.1279C107.991 24.077 107.915 25.0378 107.919 26C107.974 36.1699 108.075 45.6981 108.147 52H100.259V26C100.259 22.5856 100.923 19.2047 102.214 16.0502C103.505 12.8958 105.397 10.0295 107.782 7.61522C110.167 5.2009 112.998 3.28575 116.115 1.97913C119.231 0.672509 122.571 0 125.944 0C129.317 0 132.657 0.672509 135.773 1.97913C138.889 3.28575 141.721 5.2009 144.106 7.61522C146.491 10.0295 148.383 12.8958 149.674 16.0502C150.964 19.2047 151.629 22.5856 151.629 26Z" fill="url(#paint2_radial_291_359)"/>
<path d="M239.184 7.61693C240.037 8.48098 240.827 9.40565 241.55 10.3839L221.027 31.1621L215.924 26L230.963 10.7766C228.247 8.96372 225.097 7.92901 221.847 7.78232C218.598 7.63563 215.369 8.38245 212.505 9.94349C209.641 11.5045 207.247 13.8215 205.579 16.6485C203.911 19.4755 203.03 22.707 203.03 26C203.03 29.2929 203.911 32.5244 205.579 35.3514C207.247 38.1784 209.641 40.4954 212.505 42.0565C215.369 43.6175 218.598 44.3643 221.847 44.2177C225.097 44.071 228.247 43.0363 230.963 41.2234C232.987 39.867 234.721 38.1128 236.062 36.0647L241.55 41.6196C240.104 43.5792 238.386 45.3178 236.45 46.7818C232.636 49.6848 228.099 51.4546 223.346 51.8928C218.594 52.331 213.815 51.4202 209.546 49.2625C205.276 47.1049 201.685 43.7857 199.175 39.6774C196.665 35.569 195.335 30.834 195.335 26.0035C195.335 21.173 196.665 16.438 199.175 12.3296C201.685 8.22129 205.276 4.90214 209.546 2.74448C213.815 0.586816 218.594 -0.324007 223.346 0.114179C228.099 0.552366 232.636 2.32223 236.45 5.22523C237.418 5.95443 238.331 6.75376 239.184 7.61693Z" fill="url(#paint3_radial_291_359)"/>
<path d="M194.206 10.9204L179.309 51.9895H169.446L150.96 1.80255H159.676L174.442 43.58L185.545 10.9204H194.206Z" fill="url(#paint4_radial_291_359)"/>
<path d="M272.646 52L263.867 38.1724L255.899 52H246.719L259.506 31.2884L246.546 10.9485H255.899L264.678 24.6989L272.584 10.9204H281.768L269.036 31.5724L282 52H272.646Z" fill="url(#paint5_radial_291_359)"/>
<path d="M69.8452 0C64.7652 0 59.7993 1.52487 55.5755 4.38179C51.3516 7.23871 48.0595 11.2994 46.1155 16.0502C44.1715 20.8011 43.6628 26.0288 44.6539 31.0723C45.6449 36.1159 48.0912 40.7486 51.6833 44.3848C55.2754 48.0209 59.852 50.4972 64.8343 51.5004C69.8167 52.5036 74.9811 51.9887 79.6744 50.0209C84.3677 48.053 88.3791 44.7205 91.2014 40.4448C94.0237 36.1691 95.5301 31.1423 95.5301 26C95.5301 19.1044 92.824 12.4912 88.0072 7.61522C83.1903 2.73928 76.6573 0 69.8452 0ZM69.8452 44.2463C66.2822 44.2463 62.7993 43.1768 59.8368 41.173C56.8742 39.1692 54.5653 36.3212 53.2018 32.989C51.8383 29.6569 51.4815 25.9903 52.1766 22.4529C52.8717 18.9155 54.5875 15.6662 57.1069 13.1159C59.6263 10.5656 62.8362 8.82877 66.3307 8.12514C69.8252 7.42151 73.4474 7.78264 76.7392 9.16287C80.0309 10.5431 82.8444 12.8804 84.8239 15.8793C86.8034 18.8781 87.86 22.4038 87.86 26.0105C87.8572 30.8451 85.958 35.4808 82.5799 38.8984C79.2018 42.3159 74.6212 44.2358 69.8452 44.2358V44.2463Z" fill="url(#paint6_radial_291_359)"/>
<path d="M25.6849 44.2358C22.6309 44.2373 19.6268 43.453 16.9546 41.9564C14.2824 40.4598 12.0299 38.3001 10.4088 35.6802C8.78769 33.0603 7.85112 30.0663 7.68711 26.9794C7.5231 23.8925 8.13703 20.814 9.47121 18.0332C10.8054 15.2525 12.816 12.8607 15.3142 11.0826C17.8124 9.30451 20.7162 8.1985 23.7526 7.86847C26.7891 7.53843 29.8586 7.99522 32.6727 9.1959C35.4869 10.3966 37.9533 12.3018 39.8403 14.7324C40.7978 12.1386 42.0784 9.67911 43.6511 7.41356C40.0368 3.8348 35.4596 1.41539 30.4929 0.458503C25.5262 -0.498386 20.391 0.0498076 15.7307 2.03439C11.0704 4.01897 7.09243 7.35166 4.29515 11.6149C1.49787 15.8781 0.0057373 20.8821 0.0057373 26C0.0057373 31.1179 1.49787 36.122 4.29515 40.3852C7.09243 44.6484 11.0704 47.9811 15.7307 49.9656C20.391 51.9502 25.5262 52.4984 30.4929 51.5415C35.4596 50.5846 40.0368 48.1652 43.6511 44.5865C42.0784 42.3209 40.7978 39.8614 39.8403 37.2676C38.1592 39.4418 36.0106 41.1995 33.5577 42.4069C31.1049 43.6144 28.4124 44.2398 25.6849 44.2358Z" fill="url(#paint7_radial_291_359)"/>
<path d="M151.629 26V52H143.744C143.817 45.6876 143.914 36.1735 143.969 26C143.973 25.038 143.897 24.0773 143.744 23.1279C143.08 18.8322 140.922 14.9181 137.658 12.0912C134.395 9.26441 130.241 7.71092 125.946 7.71092C121.65 7.71092 117.497 9.26441 114.233 12.0912C110.97 14.9181 108.811 18.8322 108.147 23.1279C107.991 24.077 107.915 25.0378 107.919 26C107.974 36.1699 108.075 45.6981 108.147 52H100.259V26C100.259 22.5856 100.923 19.2047 102.214 16.0502C103.505 12.8958 105.397 10.0295 107.782 7.61522C110.167 5.2009 112.998 3.28575 116.115 1.97913C119.231 0.672509 122.571 0 125.944 0C129.317 0 132.657 0.672509 135.773 1.97913C138.889 3.28575 141.721 5.2009 144.106 7.61522C146.491 10.0295 148.383 12.8958 149.674 16.0502C150.964 19.2047 151.629 22.5856 151.629 26Z" fill="url(#paint8_radial_291_359)"/>
<path d="M239.184 7.61693C240.037 8.48098 240.827 9.40565 241.55 10.3839L221.027 31.1621L215.924 26L230.963 10.7766C228.247 8.96372 225.097 7.92901 221.847 7.78232C218.598 7.63563 215.369 8.38245 212.505 9.94349C209.641 11.5045 207.247 13.8215 205.579 16.6485C203.911 19.4755 203.03 22.707 203.03 26C203.03 29.2929 203.911 32.5244 205.579 35.3514C207.247 38.1784 209.641 40.4954 212.505 42.0565C215.369 43.6175 218.598 44.3643 221.847 44.2177C225.097 44.071 228.247 43.0363 230.963 41.2234C232.987 39.867 234.721 38.1128 236.062 36.0647L241.55 41.6196C240.104 43.5792 238.386 45.3178 236.45 46.7818C232.636 49.6848 228.099 51.4546 223.346 51.8928C218.594 52.331 213.815 51.4202 209.546 49.2625C205.276 47.1049 201.685 43.7857 199.175 39.6774C196.665 35.569 195.335 30.834 195.335 26.0035C195.335 21.173 196.665 16.438 199.175 12.3296C201.685 8.22129 205.276 4.90214 209.546 2.74448C213.815 0.586816 218.594 -0.324007 223.346 0.114179C228.099 0.552366 232.636 2.32223 236.45 5.22523C237.418 5.95443 238.331 6.75376 239.184 7.61693Z" fill="url(#paint9_radial_291_359)"/>
<path d="M194.206 10.9204L179.309 51.9895H169.446L150.96 1.80255H159.676L174.442 43.58L185.545 10.9204H194.206Z" fill="url(#paint10_radial_291_359)"/>
<path d="M272.646 52L263.867 38.1724L255.899 52H246.719L259.506 31.2884L246.546 10.9485H255.899L264.678 24.6989L272.584 10.9204H281.768L269.036 31.5724L282 52H272.646Z" fill="url(#paint11_radial_291_359)"/>
<path d="M69.8452 0C64.7652 0 59.7993 1.52487 55.5755 4.38179C51.3516 7.23871 48.0595 11.2994 46.1155 16.0502C44.1715 20.8011 43.6628 26.0288 44.6539 31.0723C45.6449 36.1159 48.0912 40.7486 51.6833 44.3848C55.2754 48.0209 59.852 50.4972 64.8343 51.5004C69.8167 52.5036 74.9811 51.9887 79.6744 50.0209C84.3677 48.053 88.3791 44.7205 91.2014 40.4448C94.0237 36.1691 95.5301 31.1423 95.5301 26C95.5301 19.1044 92.824 12.4912 88.0072 7.61522C83.1903 2.73928 76.6573 0 69.8452 0ZM69.8452 44.2463C66.2822 44.2463 62.7993 43.1768 59.8368 41.173C56.8742 39.1692 54.5653 36.3212 53.2018 32.989C51.8383 29.6569 51.4815 25.9903 52.1766 22.4529C52.8717 18.9155 54.5875 15.6662 57.1069 13.1159C59.6263 10.5656 62.8362 8.82877 66.3307 8.12514C69.8252 7.42151 73.4474 7.78264 76.7392 9.16287C80.0309 10.5431 82.8444 12.8804 84.8239 15.8793C86.8034 18.8781 87.86 22.4038 87.86 26.0105C87.8572 30.8451 85.958 35.4808 82.5799 38.8984C79.2018 42.3159 74.6212 44.2358 69.8452 44.2358V44.2463Z" fill="url(#paint12_radial_291_359)"/>
<path d="M25.6849 44.2358C22.6309 44.2373 19.6268 43.453 16.9546 41.9564C14.2824 40.4598 12.0299 38.3001 10.4088 35.6802C8.78769 33.0603 7.85112 30.0663 7.68711 26.9794C7.5231 23.8925 8.13703 20.814 9.47121 18.0332C10.8054 15.2525 12.816 12.8607 15.3142 11.0826C17.8124 9.30451 20.7162 8.1985 23.7526 7.86847C26.7891 7.53843 29.8586 7.99522 32.6727 9.1959C35.4869 10.3966 37.9533 12.3018 39.8403 14.7324C40.7978 12.1386 42.0784 9.67911 43.6511 7.41356C40.0368 3.8348 35.4596 1.41539 30.4929 0.458503C25.5262 -0.498386 20.391 0.0498076 15.7307 2.03439C11.0704 4.01897 7.09243 7.35166 4.29515 11.6149C1.49787 15.8781 0.0057373 20.8821 0.0057373 26C0.0057373 31.1179 1.49787 36.122 4.29515 40.3852C7.09243 44.6484 11.0704 47.9811 15.7307 49.9656C20.391 51.9502 25.5262 52.4984 30.4929 51.5415C35.4596 50.5846 40.0368 48.1652 43.6511 44.5865C42.0784 42.3209 40.7978 39.8614 39.8403 37.2676C38.1592 39.4418 36.0106 41.1995 33.5577 42.4069C31.1049 43.6144 28.4124 44.2398 25.6849 44.2358Z" fill="url(#paint13_radial_291_359)"/>
<path d="M151.629 26V52H143.744C143.817 45.6876 143.914 36.1735 143.969 26C143.973 25.038 143.897 24.0773 143.744 23.1279C143.08 18.8322 140.922 14.9181 137.658 12.0912C134.395 9.26441 130.241 7.71092 125.946 7.71092C121.65 7.71092 117.497 9.26441 114.233 12.0912C110.97 14.9181 108.811 18.8322 108.147 23.1279C107.991 24.077 107.915 25.0378 107.919 26C107.974 36.1699 108.075 45.6981 108.147 52H100.259V26C100.259 22.5856 100.923 19.2047 102.214 16.0502C103.505 12.8958 105.397 10.0295 107.782 7.61522C110.167 5.2009 112.998 3.28575 116.115 1.97913C119.231 0.672509 122.571 0 125.944 0C129.317 0 132.657 0.672509 135.773 1.97913C138.889 3.28575 141.721 5.2009 144.106 7.61522C146.491 10.0295 148.383 12.8958 149.674 16.0502C150.964 19.2047 151.629 22.5856 151.629 26Z" fill="url(#paint14_radial_291_359)"/>
<path d="M239.184 7.61693C240.037 8.48098 240.827 9.40565 241.55 10.3839L221.027 31.1621L215.924 26L230.963 10.7766C228.247 8.96372 225.097 7.92901 221.847 7.78232C218.598 7.63563 215.369 8.38245 212.505 9.94349C209.641 11.5045 207.247 13.8215 205.579 16.6485C203.911 19.4755 203.03 22.707 203.03 26C203.03 29.2929 203.911 32.5244 205.579 35.3514C207.247 38.1784 209.641 40.4954 212.505 42.0565C215.369 43.6175 218.598 44.3643 221.847 44.2177C225.097 44.071 228.247 43.0363 230.963 41.2234C232.987 39.867 234.721 38.1128 236.062 36.0647L241.55 41.6196C240.104 43.5792 238.386 45.3178 236.45 46.7818C232.636 49.6848 228.099 51.4546 223.346 51.8928C218.594 52.331 213.815 51.4202 209.546 49.2625C205.276 47.1049 201.685 43.7857 199.175 39.6774C196.665 35.569 195.335 30.834 195.335 26.0035C195.335 21.173 196.665 16.438 199.175 12.3296C201.685 8.22129 205.276 4.90214 209.546 2.74448C213.815 0.586816 218.594 -0.324007 223.346 0.114179C228.099 0.552366 232.636 2.32223 236.45 5.22523C237.418 5.95443 238.331 6.75376 239.184 7.61693Z" fill="url(#paint15_radial_291_359)"/>
<path d="M194.206 10.9204L179.309 51.9895H169.446L150.96 1.80255H159.676L174.442 43.58L185.545 10.9204H194.206Z" fill="url(#paint16_radial_291_359)"/>
<path d="M272.646 52L263.867 38.1724L255.899 52H246.719L259.506 31.2884L246.546 10.9485H255.899L264.678 24.6989L272.584 10.9204H281.768L269.036 31.5724L282 52H272.646Z" fill="url(#paint17_radial_291_359)"/>
<path d="M69.8452 0C64.7652 0 59.7993 1.52487 55.5755 4.38179C51.3516 7.23871 48.0595 11.2994 46.1155 16.0502C44.1715 20.8011 43.6628 26.0288 44.6539 31.0723C45.6449 36.1159 48.0912 40.7486 51.6833 44.3848C55.2754 48.0209 59.852 50.4972 64.8343 51.5004C69.8167 52.5036 74.9811 51.9887 79.6744 50.0209C84.3677 48.053 88.3791 44.7205 91.2014 40.4448C94.0237 36.1691 95.5301 31.1423 95.5301 26C95.5301 19.1044 92.824 12.4912 88.0072 7.61522C83.1903 2.73928 76.6573 0 69.8452 0ZM69.8452 44.2463C66.2822 44.2463 62.7993 43.1768 59.8368 41.173C56.8742 39.1692 54.5653 36.3212 53.2018 32.989C51.8383 29.6569 51.4815 25.9903 52.1766 22.4529C52.8717 18.9155 54.5875 15.6662 57.1069 13.1159C59.6263 10.5656 62.8362 8.82877 66.3307 8.12514C69.8252 7.42151 73.4474 7.78264 76.7392 9.16287C80.0309 10.5431 82.8444 12.8804 84.8239 15.8793C86.8034 18.8781 87.86 22.4038 87.86 26.0105C87.8572 30.8451 85.958 35.4808 82.5799 38.8984C79.2018 42.3159 74.6212 44.2358 69.8452 44.2358V44.2463Z" fill="url(#paint18_radial_291_359)"/>
<path d="M25.6849 44.2358C22.6309 44.2373 19.6268 43.453 16.9546 41.9564C14.2824 40.4598 12.0299 38.3001 10.4088 35.6802C8.78769 33.0603 7.85112 30.0663 7.68711 26.9794C7.5231 23.8925 8.13703 20.814 9.47121 18.0332C10.8054 15.2525 12.816 12.8607 15.3142 11.0826C17.8124 9.30451 20.7162 8.1985 23.7526 7.86847C26.7891 7.53843 29.8586 7.99522 32.6727 9.1959C35.4869 10.3966 37.9533 12.3018 39.8403 14.7324C40.7978 12.1386 42.0784 9.67911 43.6511 7.41356C40.0368 3.8348 35.4596 1.41539 30.4929 0.458503C25.5262 -0.498386 20.391 0.0498076 15.7307 2.03439C11.0704 4.01897 7.09243 7.35166 4.29515 11.6149C1.49787 15.8781 0.0057373 20.8821 0.0057373 26C0.0057373 31.1179 1.49787 36.122 4.29515 40.3852C7.09243 44.6484 11.0704 47.9811 15.7307 49.9656C20.391 51.9502 25.5262 52.4984 30.4929 51.5415C35.4596 50.5846 40.0368 48.1652 43.6511 44.5865C42.0784 42.3209 40.7978 39.8614 39.8403 37.2676C38.1592 39.4418 36.0106 41.1995 33.5577 42.4069C31.1049 43.6144 28.4124 44.2398 25.6849 44.2358Z" fill="url(#paint19_radial_291_359)"/>
<path d="M151.629 26V52H143.744C143.817 45.6876 143.914 36.1735 143.969 26C143.973 25.038 143.897 24.0773 143.744 23.1279C143.08 18.8322 140.922 14.9181 137.658 12.0912C134.395 9.26441 130.241 7.71092 125.946 7.71092C121.65 7.71092 117.497 9.26441 114.233 12.0912C110.97 14.9181 108.811 18.8322 108.147 23.1279C107.991 24.077 107.915 25.0378 107.919 26C107.974 36.1699 108.075 45.6981 108.147 52H100.259V26C100.259 22.5856 100.923 19.2047 102.214 16.0502C103.505 12.8958 105.397 10.0295 107.782 7.61522C110.167 5.2009 112.998 3.28575 116.115 1.97913C119.231 0.672509 122.571 0 125.944 0C129.317 0 132.657 0.672509 135.773 1.97913C138.889 3.28575 141.721 5.2009 144.106 7.61522C146.491 10.0295 148.383 12.8958 149.674 16.0502C150.964 19.2047 151.629 22.5856 151.629 26Z" fill="url(#paint20_radial_291_359)"/>
<path d="M239.184 7.61693C240.037 8.48098 240.827 9.40565 241.55 10.3839L221.027 31.1621L215.924 26L230.963 10.7766C228.247 8.96372 225.097 7.92901 221.847 7.78232C218.598 7.63563 215.369 8.38245 212.505 9.94349C209.641 11.5045 207.247 13.8215 205.579 16.6485C203.911 19.4755 203.03 22.707 203.03 26C203.03 29.2929 203.911 32.5244 205.579 35.3514C207.247 38.1784 209.641 40.4954 212.505 42.0565C215.369 43.6175 218.598 44.3643 221.847 44.2177C225.097 44.071 228.247 43.0363 230.963 41.2234C232.987 39.867 234.721 38.1128 236.062 36.0647L241.55 41.6196C240.104 43.5792 238.386 45.3178 236.45 46.7818C232.636 49.6848 228.099 51.4546 223.346 51.8928C218.594 52.331 213.815 51.4202 209.546 49.2625C205.276 47.1049 201.685 43.7857 199.175 39.6774C196.665 35.569 195.335 30.834 195.335 26.0035C195.335 21.173 196.665 16.438 199.175 12.3296C201.685 8.22129 205.276 4.90214 209.546 2.74448C213.815 0.586816 218.594 -0.324007 223.346 0.114179C228.099 0.552366 232.636 2.32223 236.45 5.22523C237.418 5.95443 238.331 6.75376 239.184 7.61693Z" fill="url(#paint21_radial_291_359)"/>
<path d="M194.206 10.9204L179.309 51.9895H169.446L150.96 1.80255H159.676L174.442 43.58L185.545 10.9204H194.206Z" fill="url(#paint22_radial_291_359)"/>
<path d="M272.646 52L263.867 38.1724L255.899 52H246.719L259.506 31.2884L246.546 10.9485H255.899L264.678 24.6989L272.584 10.9204H281.768L269.036 31.5724L282 52H272.646Z" fill="url(#paint23_radial_291_359)"/>
</g>
<defs>
<radialGradient id="paint0_radial_291_359" cx="0" cy="0" r="1" gradientUnits="userSpaceOnUse" gradientTransform="translate(69.8452 26) scale(25.6849 26)">
<stop stop-color="white"/>
<stop offset="1"/>
</radialGradient>
<radialGradient id="paint1_radial_291_359" cx="0" cy="0" r="1" gradientUnits="userSpaceOnUse" gradientTransform="translate(6808.25 13000) scale(3002.36 3577.08)">
<stop stop-color="white"/>
<stop offset="1"/>
</radialGradient>
<radialGradient id="paint2_radial_291_359" cx="0" cy="0" r="1" gradientUnits="userSpaceOnUse" gradientTransform="translate(23552.6 13000) scale(3808.55 3855.28)">
<stop stop-color="white"/>
<stop offset="1"/>
</radialGradient>
<radialGradient id="paint3_radial_291_359" cx="0" cy="0" r="1" gradientUnits="userSpaceOnUse" gradientTransform="translate(33633.5 12998.8) scale(3258.6 3666.03)">
<stop stop-color="white"/>
<stop offset="1"/>
</radialGradient>
<radialGradient id="paint4_radial_291_359" cx="0" cy="0" r="1" gradientUnits="userSpaceOnUse" gradientTransform="translate(25716.1 12678) scale(2903.52 3369.55)">
<stop stop-color="white"/>
<stop offset="1"/>
</radialGradient>
<radialGradient id="paint5_radial_291_359" cx="0" cy="0" r="1" gradientUnits="userSpaceOnUse" gradientTransform="translate(30589.5 10921.2) scale(1949.64 2258.97)">
<stop stop-color="white"/>
<stop offset="1"/>
</radialGradient>
<radialGradient id="paint6_radial_291_359" cx="0" cy="0" r="1" gradientUnits="userSpaceOnUse" gradientTransform="translate(71.8649 16.0685) scale(171.535 173.64)">
<stop stop-color="#00E3AE"/>
<stop offset="0.1" stop-color="#00DAAB"/>
<stop offset="0.27" stop-color="#00C0A4"/>
<stop offset="0.49" stop-color="#009798"/>
<stop offset="0.75" stop-color="#005E88"/>
<stop offset="0.99" stop-color="#001F76"/>
</radialGradient>
<radialGradient id="paint7_radial_291_359" cx="0" cy="0" r="1" gradientUnits="userSpaceOnUse" gradientTransform="translate(71.865 16.0685) scale(171.535 173.64)">
<stop stop-color="#00E3AE"/>
<stop offset="0.1" stop-color="#00DAAB"/>
<stop offset="0.27" stop-color="#00C0A4"/>
<stop offset="0.49" stop-color="#009798"/>
<stop offset="0.75" stop-color="#005E88"/>
<stop offset="0.99" stop-color="#001F76"/>
</radialGradient>
<radialGradient id="paint8_radial_291_359" cx="0" cy="0" r="1" gradientUnits="userSpaceOnUse" gradientTransform="translate(71.865 16.0685) scale(171.535 173.64)">
<stop stop-color="#00E3AE"/>
<stop offset="0.1" stop-color="#00DAAB"/>
<stop offset="0.27" stop-color="#00C0A4"/>
<stop offset="0.49" stop-color="#009798"/>
<stop offset="0.75" stop-color="#005E88"/>
<stop offset="0.99" stop-color="#001F76"/>
</radialGradient>
<radialGradient id="paint9_radial_291_359" cx="0" cy="0" r="1" gradientUnits="userSpaceOnUse" gradientTransform="translate(71.8649 16.0685) scale(171.535 173.64)">
<stop stop-color="#00E3AE"/>
<stop offset="0.1" stop-color="#00DAAB"/>
<stop offset="0.27" stop-color="#00C0A4"/>
<stop offset="0.49" stop-color="#009798"/>
<stop offset="0.75" stop-color="#005E88"/>
<stop offset="0.99" stop-color="#001F76"/>
</radialGradient>
<radialGradient id="paint10_radial_291_359" cx="0" cy="0" r="1" gradientUnits="userSpaceOnUse" gradientTransform="translate(71.865 16.0685) scale(171.535 173.64)">
<stop stop-color="#00E3AE"/>
<stop offset="0.1" stop-color="#00DAAB"/>
<stop offset="0.27" stop-color="#00C0A4"/>
<stop offset="0.49" stop-color="#009798"/>
<stop offset="0.75" stop-color="#005E88"/>
<stop offset="0.99" stop-color="#001F76"/>
</radialGradient>
<radialGradient id="paint11_radial_291_359" cx="0" cy="0" r="1" gradientUnits="userSpaceOnUse" gradientTransform="translate(71.8649 16.0685) scale(171.535 173.64)">
<stop stop-color="#00E3AE"/>
<stop offset="0.1" stop-color="#00DAAB"/>
<stop offset="0.27" stop-color="#00C0A4"/>
<stop offset="0.49" stop-color="#009798"/>
<stop offset="0.75" stop-color="#005E88"/>
<stop offset="0.99" stop-color="#001F76"/>
</radialGradient>
<radialGradient id="paint12_radial_291_359" cx="0" cy="0" r="1" gradientUnits="userSpaceOnUse" gradientTransform="translate(71.8649 16.0685) scale(171.535 173.64)">
<stop stop-color="#00E3AE"/>
<stop offset="0.1" stop-color="#00DAAB"/>
<stop offset="0.27" stop-color="#00C0A4"/>
<stop offset="0.49" stop-color="#009798"/>
<stop offset="0.75" stop-color="#005E88"/>
<stop offset="0.99" stop-color="#001F76"/>
</radialGradient>
<radialGradient id="paint13_radial_291_359" cx="0" cy="0" r="1" gradientUnits="userSpaceOnUse" gradientTransform="translate(71.865 16.0685) scale(171.535 173.64)">
<stop stop-color="#00E3AE"/>
<stop offset="0.1" stop-color="#00DAAB"/>
<stop offset="0.27" stop-color="#00C0A4"/>
<stop offset="0.49" stop-color="#009798"/>
<stop offset="0.75" stop-color="#005E88"/>
<stop offset="0.99" stop-color="#001F76"/>
</radialGradient>
<radialGradient id="paint14_radial_291_359" cx="0" cy="0" r="1" gradientUnits="userSpaceOnUse" gradientTransform="translate(71.865 16.0685) scale(171.535 173.64)">
<stop stop-color="#00E3AE"/>
<stop offset="0.1" stop-color="#00DAAB"/>
<stop offset="0.27" stop-color="#00C0A4"/>
<stop offset="0.49" stop-color="#009798"/>
<stop offset="0.75" stop-color="#005E88"/>
<stop offset="0.99" stop-color="#001F76"/>
</radialGradient>
<radialGradient id="paint15_radial_291_359" cx="0" cy="0" r="1" gradientUnits="userSpaceOnUse" gradientTransform="translate(71.8649 16.0685) scale(171.535 173.64)">
<stop stop-color="#00E3AE"/>
<stop offset="0.1" stop-color="#00DAAB"/>
<stop offset="0.27" stop-color="#00C0A4"/>
<stop offset="0.49" stop-color="#009798"/>
<stop offset="0.75" stop-color="#005E88"/>
<stop offset="0.99" stop-color="#001F76"/>
</radialGradient>
<radialGradient id="paint16_radial_291_359" cx="0" cy="0" r="1" gradientUnits="userSpaceOnUse" gradientTransform="translate(71.865 16.0685) scale(171.535 173.64)">
<stop stop-color="#00E3AE"/>
<stop offset="0.1" stop-color="#00DAAB"/>
<stop offset="0.27" stop-color="#00C0A4"/>
<stop offset="0.49" stop-color="#009798"/>
<stop offset="0.75" stop-color="#005E88"/>
<stop offset="0.99" stop-color="#001F76"/>
</radialGradient>
<radialGradient id="paint17_radial_291_359" cx="0" cy="0" r="1" gradientUnits="userSpaceOnUse" gradientTransform="translate(71.8649 16.0685) scale(171.535 173.64)">
<stop stop-color="#00E3AE"/>
<stop offset="0.1" stop-color="#00DAAB"/>
<stop offset="0.27" stop-color="#00C0A4"/>
<stop offset="0.49" stop-color="#009798"/>
<stop offset="0.75" stop-color="#005E88"/>
<stop offset="0.99" stop-color="#001F76"/>
</radialGradient>
<radialGradient id="paint18_radial_291_359" cx="0" cy="0" r="1" gradientUnits="userSpaceOnUse" gradientTransform="translate(71.8649 16.0685) scale(171.535 173.64)">
<stop stop-color="#00E3AE"/>
<stop offset="0.1" stop-color="#00DAAB"/>
<stop offset="0.27" stop-color="#00C0A4"/>
<stop offset="0.49" stop-color="#009798"/>
<stop offset="0.75" stop-color="#005E88"/>
<stop offset="0.99" stop-color="#001F76"/>
</radialGradient>
<radialGradient id="paint19_radial_291_359" cx="0" cy="0" r="1" gradientUnits="userSpaceOnUse" gradientTransform="translate(71.865 16.0685) scale(171.535 173.64)">
<stop stop-color="#00E3AE"/>
<stop offset="0.1" stop-color="#00DAAB"/>
<stop offset="0.27" stop-color="#00C0A4"/>
<stop offset="0.49" stop-color="#009798"/>
<stop offset="0.75" stop-color="#005E88"/>
<stop offset="0.99" stop-color="#001F76"/>
</radialGradient>
<radialGradient id="paint20_radial_291_359" cx="0" cy="0" r="1" gradientUnits="userSpaceOnUse" gradientTransform="translate(71.865 16.0685) scale(171.535 173.64)">
<stop stop-color="#00E3AE"/>
<stop offset="0.1" stop-color="#00DAAB"/>
<stop offset="0.27" stop-color="#00C0A4"/>
<stop offset="0.49" stop-color="#009798"/>
<stop offset="0.75" stop-color="#005E88"/>
<stop offset="0.99" stop-color="#001F76"/>
</radialGradient>
<radialGradient id="paint21_radial_291_359" cx="0" cy="0" r="1" gradientUnits="userSpaceOnUse" gradientTransform="translate(71.8649 16.0685) scale(171.535 173.64)">
<stop stop-color="#00E3AE"/>
<stop offset="0.1" stop-color="#00DAAB"/>
<stop offset="0.27" stop-color="#00C0A4"/>
<stop offset="0.49" stop-color="#009798"/>
<stop offset="0.75" stop-color="#005E88"/>
<stop offset="0.99" stop-color="#001F76"/>
</radialGradient>
<radialGradient id="paint22_radial_291_359" cx="0" cy="0" r="1" gradientUnits="userSpaceOnUse" gradientTransform="translate(71.865 16.0685) scale(171.535 173.64)">
<stop stop-color="#00E3AE"/>
<stop offset="0.1" stop-color="#00DAAB"/>
<stop offset="0.27" stop-color="#00C0A4"/>
<stop offset="0.49" stop-color="#009798"/>
<stop offset="0.75" stop-color="#005E88"/>
<stop offset="0.99" stop-color="#001F76"/>
</radialGradient>
<radialGradient id="paint23_radial_291_359" cx="0" cy="0" r="1" gradientUnits="userSpaceOnUse" gradientTransform="translate(71.8649 16.0685) scale(171.535 173.64)">
<stop stop-color="#00E3AE"/>
<stop offset="0.1" stop-color="#00DAAB"/>
<stop offset="0.27" stop-color="#00C0A4"/>
<stop offset="0.49" stop-color="#009798"/>
<stop offset="0.75" stop-color="#005E88"/>
<stop offset="0.99" stop-color="#001F76"/>
</radialGradient>
<clipPath id="clip0_291_359">
<rect width="282" height="52" fill="white"/>
</clipPath>
</defs>
</svg>
