<svg width="524" height="524" viewBox="0 0 524 524" fill="none" xmlns="http://www.w3.org/2000/svg">
<g opacity="0.6" filter="url(#filter0_d_519_394)">
<circle cx="262.131" cy="262.132" r="183.884" transform="rotate(-117.637 262.131 262.132)" fill="url(#paint0_linear_519_394)"/>
</g>
<ellipse opacity="0.6" cx="262.664" cy="262.53" rx="182.212" ry="180.54" transform="rotate(62.3628 262.664 262.53)" fill="url(#paint1_linear_519_394)"/>
<g opacity="0.6" filter="url(#filter1_d_519_394)">
<circle cx="262.132" cy="262.131" r="40.12" transform="rotate(-117.637 262.132 262.131)" fill="url(#paint2_linear_519_394)"/>
</g>
<circle opacity="0.6" cx="262.131" cy="262.131" r="33.4334" transform="rotate(62.3628 262.131 262.131)" fill="url(#paint3_linear_519_394)"/>
<path d="M162.735 72.3042L159.08 83.9936L170.769 87.6485L174.424 75.9591L162.735 72.3042ZM361.527 451.959L365.182 440.269L353.493 436.615L349.838 448.304L361.527 451.959ZM165.423 80.6721L356.181 444.982L358.839 443.591L168.081 79.2805L165.423 80.6721Z" fill="url(#paint4_linear_519_394)"/>
<path d="M147.434 443.125L159.384 440.446L156.705 428.495L144.754 431.174L147.434 443.125ZM376.828 81.1385L364.877 83.818L367.557 95.7687L379.507 93.0893L376.828 81.1385ZM153.336 436.613L373.459 89.2566L370.925 87.6507L150.802 435.007L153.336 436.613Z" fill="url(#paint5_linear_519_394)"/>
<path d="M476.224 270.966L467.929 261.956L458.919 270.252L467.214 279.262L476.224 270.966ZM48.0377 253.298L56.3335 262.308L65.3434 254.012L57.0476 245.002L48.0377 253.298ZM467.633 269.11L56.7524 252.156L56.6287 255.153L467.51 272.107L467.633 269.11Z" fill="url(#paint6_linear_519_394)"/>
<path d="M150.851 322.977L145.015 320.027C146.052 318.912 146.274 317.1 145.477 315.578C144.361 313.445 141.651 312.69 139.438 313.849L135.57 315.875L141.784 327.725L144.167 326.477L141.232 320.874L147.939 324.502L150.851 322.977ZM139.188 316.988L140.718 316.187C141.519 315.767 142.586 316.033 143.029 316.879C143.472 317.724 143.094 318.756 142.281 319.172L140.748 319.966L139.188 316.988ZM154.153 309.133L152.924 306.788L145.777 310.53L151.984 322.384L159.131 318.642L157.891 316.274L153.126 318.769L151.844 316.32L155.933 314.179L154.689 311.804L150.6 313.945L149.387 311.628L154.153 309.133ZM163.944 316.309L164.076 316.24L163.638 308.262L169.989 313.144L170.129 313.071L167.705 299.048L165.131 300.396L166.442 307.318L160.801 302.719L160.757 302.742L161.32 310.009L156.366 304.985L153.799 306.329L163.944 316.309ZM180.847 307.271L183.428 305.92L171.397 296.74L171.324 296.779L172.022 311.892L174.596 310.544L174.487 308.493L179.23 306.009L180.847 307.271ZM174.351 305.978L174.14 302.05L177.241 304.465L174.351 305.978ZM193.694 300.544L187.857 297.594C188.895 296.479 189.117 294.667 188.32 293.145C187.203 291.012 184.494 290.257 182.28 291.416L178.412 293.442L184.627 305.292L187.009 304.044L184.075 298.441L190.782 302.069L193.694 300.544ZM182.031 294.555L183.56 293.754C184.362 293.334 185.429 293.6 185.872 294.446C186.314 295.291 185.936 296.323 185.124 296.739L183.59 297.533L182.031 294.555ZM192.068 286.291L188.623 288.105L194.826 299.951L198.275 298.145C202.106 296.139 203.274 292.679 201.349 289.003C199.412 285.304 195.895 284.278 192.068 286.291ZM197.046 295.763L195.958 296.332L192.23 289.214L193.297 288.656C195.642 287.427 197.778 288.033 198.94 290.254C200.096 292.46 199.377 294.542 197.046 295.763Z" fill="#F8F8F8"/>
<path d="M168.284 189.483L164.271 195.814L161.703 185.057L161.591 184.986L154.286 196.513L156.558 197.952L160.57 191.621L163.144 202.401L163.249 202.468L170.562 190.927L168.284 189.483ZM170.585 207.127C173.825 209.179 178.146 208.223 180.185 205.004C182.242 201.758 181.272 197.428 178.039 195.38C174.807 193.331 170.484 194.307 168.427 197.553C166.388 200.771 167.36 205.083 170.585 207.127ZM172.043 204.827C170.073 203.578 169.484 200.955 170.729 198.992C171.982 197.015 174.609 196.42 176.579 197.668C178.557 198.921 179.147 201.556 177.894 203.533C176.65 205.496 174.02 206.08 172.043 204.827ZM188.543 202.36L185.25 200.284L178.092 211.579L181.381 213.663C185.034 215.978 188.614 215.259 190.836 211.754C193.071 208.227 192.201 204.668 188.543 202.36ZM182.83 211.407L181.792 210.75L186.093 203.962L187.11 204.607C189.346 206.024 189.889 208.176 188.547 210.294C187.214 212.397 185.052 212.816 182.83 211.407ZM201.296 213.577L202.713 211.34L195.898 207.021L188.736 218.324L195.551 222.643L196.982 220.385L192.438 217.506L193.918 215.171L197.816 217.641L199.251 215.377L195.353 212.906L196.752 210.698L201.296 213.577Z" fill="#F8F8F8"/>
<path d="M278.239 140.932L278.622 131.66L275.959 131.55L275.823 134.843L265.116 134.401L265.005 137.096L275.712 137.538L275.577 140.822L278.239 140.932ZM264.315 147.577C264.157 151.409 267.146 154.673 270.953 154.83C274.793 154.988 278.057 151.982 278.215 148.159C278.373 144.336 275.367 141.079 271.527 140.921C267.72 140.764 264.472 143.762 264.315 147.577ZM267.035 147.689C267.131 145.359 269.109 143.538 271.431 143.634C273.77 143.73 275.599 145.708 275.503 148.039C275.407 150.378 273.42 152.206 271.082 152.11C268.759 152.014 266.939 150.028 267.035 147.689ZM263.799 166.315L270.822 161.836L277.188 166.394L277.316 163.292L271.691 159.296L277.471 159.535L277.582 156.856L264.212 156.304L264.102 158.983L269.957 159.225L263.934 163.047L263.799 166.315ZM274.137 176.104L276.783 176.214L277.116 168.152L263.746 167.6L263.414 175.662L266.084 175.772L266.306 170.398L269.068 170.512L268.878 175.123L271.556 175.234L271.747 170.622L274.359 170.73L274.137 176.104ZM276.403 186.242L268.913 185.933L276.945 178.331L276.951 178.198L263.316 177.635L263.205 180.322L270.694 180.631L262.645 188.25L262.64 188.374L276.291 188.938L276.403 186.242Z" fill="#F8F8F8"/>
<path d="M362.087 207.216L359.506 208.568L371.536 217.747L371.61 217.709L370.911 202.596L368.337 203.943L368.446 205.994L363.703 208.478L362.087 207.216ZM368.582 208.509L368.793 212.437L365.692 210.022L368.582 208.509ZM359.734 223.552L359.174 215.075L365.816 220.368L368.338 219.047L356.454 209.791L356.366 209.837L357.182 224.888L359.734 223.552ZM344.776 216.28L342.195 217.632L354.226 226.811L354.299 226.773L353.601 211.66L351.027 213.007L351.136 215.058L346.393 217.542L344.776 216.28ZM351.272 217.573L351.483 221.501L348.382 219.086L351.272 217.573ZM341.879 217.797L339.143 219.23L338.983 224.382L334.65 221.582L331.915 223.015L338.752 227.287L338.342 234.753L341.078 233.321L341.221 228.673L345.13 231.199L347.865 229.767L341.498 225.839L341.879 217.797Z" fill="#F8F8F8"/>
<path d="M353.075 332.901L356.367 334.978L363.526 323.683L360.237 321.599C356.584 319.284 353.004 320.002 350.782 323.508C348.547 327.035 349.417 330.593 353.075 332.901ZM358.788 323.855L359.826 324.512L355.525 331.299L354.508 330.655C352.271 329.238 351.729 327.086 353.07 324.968C354.403 322.865 356.565 322.446 358.788 323.855ZM340.322 321.685L338.904 323.921L345.72 328.24L352.882 316.938L346.067 312.619L344.636 314.877L349.18 317.756L347.7 320.091L343.802 317.62L342.367 319.885L346.265 322.355L344.865 324.564L340.322 321.685ZM331.838 316.309L330.403 318.573L337.218 322.892L344.407 311.547L342.135 310.108L339.261 314.644L335.362 312.174L333.927 314.439L337.825 316.909L336.381 319.188L331.838 316.309ZM336.307 306.434L334.035 304.994L326.873 316.297L329.145 317.737L336.307 306.434Z" fill="#F8F8F8"/>
<path d="M258.238 411.875L258.349 409.188L254.003 409.008L254.086 407.001C254.193 404.413 252.257 402.215 249.777 402.113C247.289 402.01 245.169 404.041 245.063 406.629L244.869 411.323L258.238 411.875ZM251.432 406.892L251.341 408.898L247.642 408.746L247.725 406.739C247.771 405.627 248.629 404.757 249.641 404.799C250.678 404.842 251.486 405.781 251.432 406.892ZM259.111 390.726L253.638 394.305C253.191 392.849 251.733 391.751 250.016 391.68C247.611 391.58 245.602 393.55 245.499 396.046L245.319 400.409L258.689 400.952L258.8 398.265L252.48 398.004L258.976 394.01L259.111 390.726ZM248.092 397.831L248.164 396.106C248.201 395.202 248.965 394.411 249.918 394.45C250.872 394.49 251.577 395.333 251.531 396.245L251.451 397.97L248.092 397.831ZM259.683 383.098C259.841 379.266 256.852 376.002 253.046 375.845C249.206 375.687 245.941 378.693 245.783 382.516C245.626 386.339 248.632 389.595 252.472 389.754C256.278 389.911 259.526 386.913 259.683 383.098ZM256.963 382.986C256.867 385.316 254.889 387.137 252.567 387.041C250.228 386.945 248.399 384.967 248.495 382.636C248.592 380.297 250.578 378.468 252.917 378.565C255.239 378.661 257.059 380.647 256.963 382.986ZM246.738 366.023L246.355 375.295L249.018 375.405L249.154 372.112L259.861 372.554L259.972 369.859L249.265 369.417L249.4 366.133L246.738 366.023ZM260.662 359.378C260.82 355.546 257.831 352.282 254.024 352.125C250.184 351.967 246.92 354.972 246.762 358.796C246.604 362.619 249.61 365.875 253.45 366.034C257.257 366.191 260.505 363.193 260.662 359.378ZM257.942 359.265C257.846 361.596 255.868 363.417 253.546 363.321C251.207 363.225 249.378 361.247 249.474 358.916C249.57 356.577 251.557 354.748 253.895 354.845C256.218 354.941 258.038 356.927 257.942 359.265ZM261.286 344.25C261.37 342.226 260.55 340.755 259.429 339.529L257.192 340.982C258.027 341.906 258.638 342.994 258.587 344.222C258.502 346.287 256.573 348.334 254.193 348.236C251.854 348.139 250.031 346.012 250.12 343.864C250.167 342.711 250.76 341.639 251.693 340.764L249.642 339.125C248.233 340.471 247.481 341.986 247.384 343.726C247.229 347.492 250.291 350.8 254.064 350.955C257.821 351.111 261.127 348.107 261.286 344.25ZM261.778 332.324C261.936 328.492 258.947 325.228 255.141 325.071C251.301 324.913 248.036 327.918 247.878 331.742C247.721 335.565 250.727 338.821 254.567 338.98C258.374 339.137 261.621 336.139 261.778 332.324ZM259.058 332.211C258.962 334.542 256.984 336.363 254.662 336.267C252.323 336.17 250.494 334.192 250.59 331.862C250.687 329.523 252.673 327.694 255.012 327.791C257.334 327.887 259.155 329.873 259.058 332.211ZM259.321 320.799L248.622 320.357L248.511 323.045L261.881 323.596L262.214 315.535L259.543 315.425L259.321 320.799Z" fill="#F8F8F8"/>
<defs>
<filter id="filter0_d_519_394" x="67.2101" y="67.2104" width="389.842" height="389.842" filterUnits="userSpaceOnUse" color-interpolation-filters="sRGB">
<feFlood flood-opacity="0" result="BackgroundImageFix"/>
<feColorMatrix in="SourceAlpha" type="matrix" values="0 0 0 0 0 0 0 0 0 0 0 0 0 0 0 0 0 0 127 0" result="hardAlpha"/>
<feOffset/>
<feGaussianBlur stdDeviation="5.5"/>
<feComposite in2="hardAlpha" operator="out"/>
<feColorMatrix type="matrix" values="0 0 0 0 0 0 0 0 0 0 0 0 0 0 0 0 0 0 1 0"/>
<feBlend mode="normal" in2="BackgroundImageFix" result="effect1_dropShadow_519_394"/>
<feBlend mode="normal" in="SourceGraphic" in2="effect1_dropShadow_519_394" result="shape"/>
</filter>
<filter id="filter1_d_519_394" x="211.003" y="211.003" width="102.256" height="102.257" filterUnits="userSpaceOnUse" color-interpolation-filters="sRGB">
<feFlood flood-opacity="0" result="BackgroundImageFix"/>
<feColorMatrix in="SourceAlpha" type="matrix" values="0 0 0 0 0 0 0 0 0 0 0 0 0 0 0 0 0 0 127 0" result="hardAlpha"/>
<feOffset/>
<feGaussianBlur stdDeviation="5.5"/>
<feComposite in2="hardAlpha" operator="out"/>
<feColorMatrix type="matrix" values="0 0 0 0 0 0 0 0 0 0 0 0 0 0 0 0 0 0 0.5 0"/>
<feBlend mode="normal" in2="BackgroundImageFix" result="effect1_dropShadow_519_394"/>
<feBlend mode="normal" in="SourceGraphic" in2="effect1_dropShadow_519_394" result="shape"/>
</filter>
<linearGradient id="paint0_linear_519_394" x1="446.015" y1="78.2479" x2="78.2476" y2="446.015" gradientUnits="userSpaceOnUse">
<stop stop-color="white"/>
<stop offset="1" stop-color="#D8E8F7"/>
</linearGradient>
<linearGradient id="paint1_linear_519_394" x1="444.876" y1="81.9898" x2="83.8108" y2="446.398" gradientUnits="userSpaceOnUse">
<stop stop-color="#001F76"/>
<stop offset="1" stop-color="#00E3AE"/>
</linearGradient>
<linearGradient id="paint2_linear_519_394" x1="302.252" y1="222.011" x2="222.011" y2="302.251" gradientUnits="userSpaceOnUse">
<stop stop-color="#001F76"/>
<stop offset="1" stop-color="#00E3AE"/>
</linearGradient>
<linearGradient id="paint3_linear_519_394" x1="295.565" y1="228.698" x2="228.698" y2="295.565" gradientUnits="userSpaceOnUse">
<stop stop-color="#001F76"/>
<stop offset="1" stop-color="#00E3AE"/>
</linearGradient>
<linearGradient id="paint4_linear_519_394" x1="169.471" y1="111.845" x2="170.972" y2="110.933" gradientUnits="userSpaceOnUse">
<stop stop-color="#001F76"/>
<stop offset="1" stop-color="#00E3AE"/>
</linearGradient>
<linearGradient id="paint5_linear_519_394" x1="178.309" y1="417.521" x2="176.768" y2="416.677" gradientUnits="userSpaceOnUse">
<stop stop-color="#001F76"/>
<stop offset="1" stop-color="#00E3AE"/>
</linearGradient>
<linearGradient id="paint6_linear_519_394" x1="438.613" y1="257.029" x2="438.653" y2="258.785" gradientUnits="userSpaceOnUse">
<stop stop-color="#001F76"/>
<stop offset="1" stop-color="#00E3AE"/>
</linearGradient>
</defs>
</svg>
