<svg width="413" height="44" viewBox="0 0 413 44" fill="none" xmlns="http://www.w3.org/2000/svg">
<g clip-path="url(#clip0_731_61)">
<path d="M7.07972 0.128418H35.3986C38.4896 1.92052 40.8065 4.35456 42.3493 7.43055L42.4138 14.3475H33.0172C33.0602 12.2986 32.5334 10.7419 31.4421 9.67201H0.0645077L0 7.17377C1.97286 3.3328 4.33277 0.984346 7.07972 0.128418ZM9.26761 17.2951V31.6426C9.43963 33.4347 10.2567 34.3762 11.7135 34.4618H31.0228C32.5657 33.5203 33.2537 31.985 33.0817 29.8505H42.3493V36.3823C40.8925 39.6295 38.1026 42.1491 33.9848 43.9412H8.3645C5.27351 42.9141 2.48355 40.4426 0 36.5107V17.2951H9.26761Z" fill="black"/>
<path d="M64.2981 17.2951V32.7927L65.9699 34.4564H86.435L87.9778 32.7927L88.0423 11.2073L86.306 9.47939H55.0251V7.68729C56.9119 3.76073 59.6589 1.1983 63.2606 0H89.0045C92.6922 1.44973 95.4822 4.14055 97.369 8.07246V35.9971C95.6542 39.7525 92.9933 42.4005 89.3862 43.9412H63.2552C59.6535 42.4914 56.9066 39.6294 55.0197 35.3605V17.2951H64.2873H64.2981Z" fill="black"/>
<path d="M119.452 0.128418H148.545C151.12 1.15553 153.351 3.20441 155.238 6.27505L155.302 44.0001H145.906L145.841 11.3999L144.169 9.47943H112.889V6.53183C114.603 3.54143 116.791 1.40696 119.452 0.128418ZM122.285 17.1667L122.35 44.0054H112.953L112.889 17.1667H122.285Z" fill="black"/>
<path d="M211.972 0.1604V9.5435H169.623V0.1604H211.972ZM196.335 17.295L196.399 44.0053H187.002L186.938 17.295H196.335Z" fill="black"/>
<path d="M233.658 0H268.153V9.47939H225.804V7.17374C227.519 3.66979 230.137 1.27854 233.658 0ZM268.218 17.3593V26.7103H235.265L235.201 32.5413L236.84 34.526H268.218V43.877L233.916 43.8128C230.314 42.363 227.61 39.6294 225.804 35.6173L225.868 17.3646H268.218V17.3593Z" fill="black"/>
<path d="M291.779 0V7.94407L293.451 11.6567L285.855 14.9894L282.377 10.1213V0H291.774H291.779ZM299.375 18.1884C303.493 16.8243 307.955 14.9038 312.76 12.4216L315.464 7.81033V0.128389H324.861V10.7579C323.915 14.2619 320.743 16.9902 315.335 18.9534V22.0294C319.883 22.7142 323.06 25.4852 324.861 30.3533L324.925 43.9947L315.464 43.9305V32.7874C313.836 28.9464 311.218 26.384 307.61 25.1001H299.757C295.983 26.0416 293.365 28.6468 291.903 32.9157V43.9305L282.571 43.9947L282.506 29.8398C285.081 25.314 290.699 21.4303 299.37 18.1831L299.375 18.1884Z" fill="black"/>
<path d="M356.362 0.128418V9.47943H339.112V0.128418H356.362ZM343.875 34.3281V17.2898H353.271V34.4565H356.362L356.427 44.0001H339.176L339.112 34.3281H343.875Z" fill="black"/>
<path d="M403.603 17.4877L403.539 11.0201L401.222 9.48479H370.457C371.656 4.35993 374.145 1.24649 377.924 0.133789H405.34C409.199 1.66911 411.731 4.14595 412.935 7.56431L413 44.0054H403.603V26.8387H380.047V44.0054H370.651V17.4877H403.603Z" fill="black"/>
<path d="M7.07972 0.128418H35.3986C38.4896 1.92052 40.8065 4.35456 42.3493 7.43055L42.4138 14.3475H33.0172C33.0602 12.2986 32.5334 10.7419 31.4421 9.67201H0.0645077L0 7.17377C1.97286 3.3328 4.33277 0.984346 7.07972 0.128418ZM9.26761 17.2951V31.6426C9.43963 33.4347 10.2567 34.3762 11.7135 34.4618H31.0228C32.5657 33.5203 33.2537 31.985 33.0817 29.8505H42.3493V36.3823C40.8925 39.6295 38.1026 42.1491 33.9848 43.9412H8.3645C5.27351 42.9141 2.48355 40.4426 0 36.5107V17.2951H9.26761Z" fill="url(#paint0_linear_731_61)"/>
<path d="M64.2981 17.2951V32.7927L65.9699 34.4564H86.435L87.9778 32.7927L88.0423 11.2073L86.306 9.47939H55.0251V7.68729C56.9119 3.76073 59.6589 1.1983 63.2606 0H89.0045C92.6922 1.44973 95.4822 4.14055 97.369 8.07246V35.9971C95.6542 39.7525 92.9933 42.4005 89.3862 43.9412H63.2552C59.6535 42.4914 56.9066 39.6294 55.0197 35.3605V17.2951H64.2873H64.2981Z" fill="url(#paint1_linear_731_61)"/>
<path d="M119.452 0.128418H148.545C151.12 1.15553 153.351 3.20441 155.238 6.27505L155.302 44.0001H145.906L145.841 11.3999L144.169 9.47943H112.889V6.53183C114.603 3.54143 116.791 1.40696 119.452 0.128418ZM122.285 17.1667L122.35 44.0054H112.953L112.889 17.1667H122.285Z" fill="url(#paint2_linear_731_61)"/>
<path d="M211.972 0.1604V9.5435H169.623V0.1604H211.972ZM196.335 17.295L196.399 44.0053H187.002L186.938 17.295H196.335Z" fill="url(#paint3_linear_731_61)"/>
<path d="M233.658 0H268.153V9.47939H225.804V7.17374C227.519 3.66979 230.137 1.27854 233.658 0ZM268.218 17.3593V26.7103H235.265L235.201 32.5413L236.84 34.526H268.218V43.877L233.916 43.8128C230.314 42.363 227.61 39.6294 225.804 35.6173L225.868 17.3646H268.218V17.3593Z" fill="url(#paint4_linear_731_61)"/>
<path d="M291.779 0V7.94407L293.451 11.6567L285.855 14.9894L282.377 10.1213V0H291.774H291.779ZM299.375 18.1884C303.493 16.8243 307.955 14.9038 312.76 12.4216L315.464 7.81033V0.128389H324.861V10.7579C323.915 14.2619 320.743 16.9902 315.335 18.9534V22.0294C319.883 22.7142 323.06 25.4852 324.861 30.3533L324.925 43.9947L315.464 43.9305V32.7874C313.836 28.9464 311.218 26.384 307.61 25.1001H299.757C295.983 26.0416 293.365 28.6468 291.903 32.9157V43.9305L282.571 43.9947L282.506 29.8398C285.081 25.314 290.699 21.4303 299.37 18.1831L299.375 18.1884Z" fill="url(#paint5_linear_731_61)"/>
<path d="M356.362 0.128418V9.47943H339.112V0.128418H356.362ZM343.875 34.3281V17.2898H353.271V34.4565H356.362L356.427 44.0001H339.176L339.112 34.3281H343.875Z" fill="url(#paint6_linear_731_61)"/>
<path d="M403.603 17.4877L403.539 11.0201L401.222 9.48479H370.457C371.656 4.35993 374.145 1.24649 377.924 0.133789H405.34C409.199 1.66911 411.731 4.14595 412.935 7.56431L413 44.0054H403.603V26.8387H380.047V44.0054H370.651V17.4877H403.603Z" fill="url(#paint7_linear_731_61)"/>
</g>
<defs>
<linearGradient id="paint0_linear_731_61" x1="0" y1="22.0027" x2="413" y2="22.0027" gradientUnits="userSpaceOnUse">
<stop stop-color="#02D2A9"/>
<stop offset="1" stop-color="#031F76"/>
</linearGradient>
<linearGradient id="paint1_linear_731_61" x1="-2.49822e-06" y1="22.0027" x2="413" y2="22.0027" gradientUnits="userSpaceOnUse">
<stop stop-color="#02D2A9"/>
<stop offset="1" stop-color="#031F76"/>
</linearGradient>
<linearGradient id="paint2_linear_731_61" x1="2.19268e-07" y1="22.0027" x2="413" y2="22.0027" gradientUnits="userSpaceOnUse">
<stop stop-color="#02D2A9"/>
<stop offset="1" stop-color="#031F76"/>
</linearGradient>
<linearGradient id="paint3_linear_731_61" x1="-1.54668e-05" y1="22.0026" x2="413" y2="22.0026" gradientUnits="userSpaceOnUse">
<stop stop-color="#02D2A9"/>
<stop offset="1" stop-color="#031F76"/>
</linearGradient>
<linearGradient id="paint4_linear_731_61" x1="-0.000208442" y1="22.0027" x2="413" y2="22.0027" gradientUnits="userSpaceOnUse">
<stop stop-color="#02D2A9"/>
<stop offset="1" stop-color="#031F76"/>
</linearGradient>
<linearGradient id="paint5_linear_731_61" x1="-0.000174762" y1="22.0027" x2="413" y2="22.0027" gradientUnits="userSpaceOnUse">
<stop stop-color="#02D2A9"/>
<stop offset="1" stop-color="#031F76"/>
</linearGradient>
<linearGradient id="paint6_linear_731_61" x1="0.000765973" y1="22.0027" x2="413" y2="22.0027" gradientUnits="userSpaceOnUse">
<stop stop-color="#02D2A9"/>
<stop offset="1" stop-color="#031F76"/>
</linearGradient>
<linearGradient id="paint7_linear_731_61" x1="3.64994e-05" y1="22.0027" x2="413" y2="22.0027" gradientUnits="userSpaceOnUse">
<stop stop-color="#02D2A9"/>
<stop offset="1" stop-color="#031F76"/>
</linearGradient>
<clipPath id="clip0_731_61">
<rect width="413" height="44" fill="white"/>
</clipPath>
</defs>
</svg>
