<svg width="23" height="20" viewBox="0 0 23 20" fill="none" xmlns="http://www.w3.org/2000/svg">
<path d="M0 9.02182C0 9.7284 0.573464 10.3019 1.28005 10.3019C1.99688 10.3019 2.56011 9.7284 2.56011 9.02182V8.35619C2.56011 6.687 3.70703 5.61175 5.44791 5.61175H13.1385V7.752C13.1385 8.36643 13.5276 8.75556 14.1523 8.75556C14.4288 8.75556 14.6848 8.65316 14.8896 8.48931L18.9243 5.13045C19.4261 4.73108 19.4159 4.05521 18.9243 3.64559L14.8896 0.276492C14.6848 0.102404 14.4288 0 14.1523 0C13.5276 0 13.1385 0.389136 13.1385 1.00356V3.09261H5.65272C2.18121 3.09261 0 5.02805 0 8.11042V9.02182ZM9.86153 11.8277C9.86153 11.2133 9.4724 10.8139 8.85797 10.8139C8.58148 10.8139 8.31523 10.9265 8.11042 11.0904L4.08593 14.4492C3.58415 14.8486 3.58415 15.5142 4.08593 15.9341L8.11042 19.3032C8.31523 19.4773 8.58148 19.5797 8.85797 19.5797C9.4724 19.5797 9.86153 19.1906 9.86153 18.5761V16.4768H17.3575C20.829 16.4768 23 14.5312 23 11.459V10.5476C23 9.83081 22.4368 9.25735 21.7199 9.25735C21.0134 9.25735 20.4399 9.83081 20.4399 10.5476V11.2133C20.4399 12.8722 19.3032 13.9577 17.5521 13.9577H9.86153V11.8277Z" fill="url(#paint0_linear_291_608)"/>
<defs>
<linearGradient id="paint0_linear_291_608" x1="23" y1="-1.16704e-06" x2="3.67136" y2="22.7051" gradientUnits="userSpaceOnUse">
<stop stop-color="#001F76"/>
<stop offset="1" stop-color="#00E3AE"/>
</linearGradient>
</defs>
</svg>
