<svg width="630" height="630" viewBox="0 0 630 630" fill="none" xmlns="http://www.w3.org/2000/svg">
<circle cx="315.451" cy="315.367" r="222.332" transform="rotate(135 315.451 315.367)" fill="url(#paint0_linear_0_1)"/>
<path fill-rule="evenodd" clip-rule="evenodd" d="M519.489 403.49C568.158 290.756 516.223 159.914 403.49 111.245C290.756 62.5756 159.914 114.51 111.245 227.244C62.5755 339.977 114.51 470.82 227.244 519.489C339.977 568.158 470.82 516.223 519.489 403.49ZM315.367 109.751C201.809 109.751 109.751 201.808 109.751 315.367C109.751 428.925 201.809 520.982 315.367 520.982C428.925 520.982 520.982 428.925 520.982 315.367C520.982 201.809 428.925 109.751 315.367 109.751Z" fill="url(#paint1_linear_0_1)"/>
<g opacity="0.8">
<path d="M317.721 165.666L317.114 167.729L317.114 227.584L317.721 228.19L345.505 211.767L317.721 165.666Z" fill="white"/>
<path d="M317.721 165.666L289.937 211.767L317.721 228.19L317.721 199.138L317.721 165.666Z" fill="white"/>
<path d="M317.72 237.23L317.378 237.646L317.378 258.968L317.72 259.967L345.521 220.815L317.72 237.23Z" fill="white"/>
<path d="M317.721 259.967L317.721 237.23L289.937 220.815L317.721 259.967Z" fill="white"/>
<path d="M317.72 228.191L345.504 211.768L317.72 199.139L317.72 228.191Z" fill="white"/>
<path d="M289.937 211.766L317.72 228.189L317.72 199.137L289.937 211.766Z" fill="white"/>
</g>
<g opacity="0.8">
<path d="M186.985 238.157L188.468 239.714L240.304 269.642L241.133 269.419L240.802 237.146L186.985 238.157Z" fill="white"/>
<path d="M186.985 238.157L213.018 285.269L241.133 269.419L215.973 254.893L186.985 238.157Z" fill="white"/>
<path d="M248.961 273.939L249.151 274.443L267.616 285.104L268.652 285.308L248.645 241.655L248.961 273.939Z" fill="white"/>
<path d="M268.652 285.307L248.961 273.938L220.853 289.793L268.652 285.307Z" fill="white"/>
<path d="M241.133 269.419L240.802 237.146L215.973 254.894L241.133 269.419Z" fill="white"/>
<path d="M213.017 285.268L241.131 269.419L215.972 254.893L213.017 285.268Z" fill="white"/>
</g>
<g opacity="0.8">
<path d="M443.278 392.107L441.795 390.55L389.959 360.622L389.131 360.845L389.462 393.118L443.278 392.107Z" fill="white"/>
<path d="M443.278 392.107L417.246 344.995L389.131 360.845L414.291 375.371L443.278 392.107Z" fill="white"/>
<path d="M381.303 356.325L381.113 355.82L362.648 345.159L361.612 344.956L381.618 388.609L381.303 356.325Z" fill="white"/>
<path d="M361.611 344.957L381.303 356.326L409.411 340.471L361.611 344.957Z" fill="white"/>
<path d="M389.131 360.844L389.462 393.117L414.29 375.37L389.131 360.844Z" fill="white"/>
<path d="M417.247 344.996L389.132 360.845L414.292 375.371L417.247 344.996Z" fill="white"/>
</g>
<g opacity="0.8">
<path d="M184.396 387.623L186.486 387.117L238.322 357.189L238.543 356.361L210.429 340.511L184.396 387.623Z" fill="white"/>
<path d="M184.396 387.623L238.213 388.634L238.544 356.361L213.384 370.887L184.396 387.623Z" fill="white"/>
<path d="M246.372 351.842L246.904 351.929L265.369 341.268L266.063 340.473L218.256 335.973L246.372 351.842Z" fill="white"/>
<path d="M266.063 340.472L246.372 351.841L246.048 384.11L266.063 340.472Z" fill="white"/>
<path d="M238.544 356.361L210.43 340.511L213.385 370.886L238.544 356.361Z" fill="white"/>
<path d="M238.212 388.635L238.543 356.362L213.383 370.888L238.212 388.635Z" fill="white"/>
</g>
<g opacity="0.8">
<path d="M312.543 464.598L313.149 462.535L313.149 402.68L312.543 402.074L284.758 418.497L312.543 464.598Z" fill="white"/>
<path d="M312.542 464.598L340.327 418.497L312.543 402.074L312.543 431.125L312.542 464.598Z" fill="white"/>
<path d="M312.543 393.034L312.885 392.617L312.885 371.296L312.543 370.297L284.742 409.449L312.543 393.034Z" fill="white"/>
<path d="M312.543 370.297L312.542 393.034L340.327 409.449L312.543 370.297Z" fill="white"/>
<path d="M312.543 402.073L284.759 418.496L312.543 431.125L312.543 402.073Z" fill="white"/>
<path d="M340.327 418.498L312.543 402.075L312.543 431.127L340.327 418.498Z" fill="white"/>
</g>
<g opacity="0.8">
<path d="M445.867 242.64L443.777 243.146L391.941 273.074L391.719 273.902L419.834 289.752L445.867 242.64Z" fill="white"/>
<path d="M445.867 242.64L392.05 241.629L391.719 273.902L416.879 259.376L445.867 242.64Z" fill="white"/>
<path d="M383.891 278.421L383.359 278.334L364.894 288.995L364.2 289.79L412.007 294.29L383.891 278.421Z" fill="white"/>
<path d="M364.2 289.791L383.891 278.422L384.215 246.153L364.2 289.791Z" fill="white"/>
<path d="M391.719 273.902L419.833 289.752L416.878 259.376L391.719 273.902Z" fill="white"/>
<path d="M392.051 241.628L391.72 273.901L416.88 259.375L392.051 241.628Z" fill="white"/>
</g>
<g filter="url(#filter0_f_0_1)">
<path fill-rule="evenodd" clip-rule="evenodd" d="M205.357 407.012C197.294 409.258 196.919 421.928 204.767 424.614C210.612 427.307 218.001 422.418 218.025 416.008C218.362 409.66 211.302 404.516 205.357 407.012ZM263.79 464.186C259.908 467.224 260.78 474.16 265.188 476.13C270.661 479.498 278.314 473.224 275.896 467.229C274.619 462.186 267.34 460.186 263.79 464.186ZM164.459 348.896C168.622 354.547 161.331 362.942 155.107 359.592C149.673 357.567 149.893 350.797 152.994 346.825C156.836 344.7 162.088 344.591 164.459 348.896ZM273.976 419.852C266.828 425.019 268.969 437.622 277.547 439.775C284.96 442.378 293.442 435.694 292.506 427.87C292.352 419.009 280.663 414.075 273.976 419.852ZM203.139 353.549C194.561 357.071 185.124 347.45 188.655 338.914C190.858 331.693 199.922 329.467 206.118 332.785C213.388 338.064 212.131 350.78 203.139 353.549ZM238.312 387.284C243.485 392.028 252.121 393.103 257.483 387.944C262.179 384.062 262.84 377.527 261.178 372.075C260.848 371.68 260.521 371.272 260.191 370.862C258.38 368.606 256.499 366.262 253.649 365.382C246.867 362.56 238.066 366.331 235.865 373.512C233.789 378.208 235.809 383.261 238.312 387.284ZM345.931 465.887C338.183 463.836 337.491 451.859 344.694 448.607C350.369 445.205 358.183 449.656 358.556 456.063C359.346 462.532 352.015 468.306 345.931 465.887ZM168.734 266.4C162.903 270.955 165.665 281.455 172.924 282.547C179.667 284.336 186.363 277.132 184.114 270.571C182.695 264.026 173.354 261.508 168.734 266.4ZM252.432 347.323C243.374 342.764 238.615 331.688 241.131 321.845C243.845 309.43 258.087 301.235 270.1 305.192C283.189 308.687 290.346 325.069 283.812 337.086C278.663 348.587 263.239 353.462 252.432 347.323ZM278.488 358.545C274.05 369.748 280.734 382.99 291.648 387.217C303.07 391.921 317.524 385.406 321.544 373.592C326.272 361.98 319.264 347.74 307.402 344.153C296.043 340.109 282.095 346.885 278.488 358.545ZM344.146 414.679C338.593 418.814 330.932 417.214 326.15 412.819C321.978 407.158 322.134 399.345 326.803 393.895C332.256 389.38 340.987 388.573 346.042 393.993C352.153 399.437 351.1 410.259 344.146 414.679ZM218.356 278.968C211.035 285.364 213.801 298.735 223.125 301.446C232.406 305.045 243.167 295.82 240.881 286.073C239.552 275.867 225.448 271.487 218.356 278.968ZM340.213 372.686C331.515 367.432 327.223 356.091 330.539 346.361C333.585 336.256 344.305 329.097 354.792 330.434C369.142 331.299 379.528 348.066 373.584 361.341C369.024 374.452 351.68 380.116 340.213 372.686ZM256.723 270.123C253.864 279.855 258.842 290.53 267.374 295.566C279.241 302.754 296.567 296.143 300.558 282.702C305.102 270.434 296.751 255.846 284.057 253.318C272.449 250.424 259.366 258.328 256.723 270.123ZM391.702 410.68C383.548 406.747 383.971 393.459 392.482 390.139C399.531 386.366 408.993 392.239 408.671 400.188C409.252 408.586 398.953 414.991 391.702 410.68ZM225.06 236.167C230.276 241.125 238.353 240.552 243.334 235.517C244.771 232.231 246.107 228.626 245.067 225.035C243.073 217.163 232.028 213.788 226.274 219.946C221.327 223.984 221.76 231.318 225.06 236.167ZM423.261 438.072C418.138 435.911 417.059 428.277 422.007 425.205C426.895 420.969 435.184 426.134 433.637 432.363C433.014 437.166 427.549 439.799 423.261 438.072ZM198.184 194.603C196.083 198.537 198.68 203.988 203.013 204.826C209.441 206.958 215.924 197.628 210.484 192.831C207.521 188.553 199.89 189.683 198.184 194.603ZM355.015 320.728C343.269 313.404 341.595 295.197 351.665 285.58C361.3 275.288 380.103 277.035 387.144 289.233C393.161 298.12 391.368 311.24 383.268 318.41C375.765 325.528 363.472 326.505 355.015 320.728ZM315.182 246.655C304.672 256.275 306.493 274.932 318.609 282.183C325.609 286.655 335.169 287.014 342.389 282.648C353.811 276.719 357.61 260.325 350.144 250.009C342.928 238.369 324.735 236.655 315.182 246.655ZM394.997 350.656C387.365 344.929 389.023 331.245 398.2 327.829C407.098 323.257 418.497 331.539 416.988 341.379C416.432 351.775 402.729 357.334 394.997 350.656ZM285.657 215.254C278.529 221.093 280.263 233.606 288.598 237.27C297.918 242.408 310.428 232.929 307.912 222.535C306.581 212.518 292.786 208.065 285.657 215.254ZM290.799 175.439C288.555 182.07 278.503 183.355 274.672 177.627C272.44 175.341 272.615 172.03 272.774 169.037C272.783 168.861 272.792 168.687 272.801 168.514L272.941 168.345C273.025 168.244 273.109 168.142 273.194 168.039L273.204 168.028C275.466 165.289 278.06 162.149 281.946 162.387C288.553 161.774 293.823 169.533 290.799 175.439ZM450.721 347.721C444.287 351.829 445.926 362.847 453.39 364.535C459.806 366.798 467.029 360.279 465.502 353.682C464.5 347.136 456.066 343.721 450.721 347.721ZM377.384 263.754C368.983 260.25 367.032 247.529 374.301 241.755C381.312 234.292 395.45 238.963 396.565 249.088C398.928 259.272 386.618 268.817 377.384 263.754ZM424.098 277.659C417.833 282.683 419.626 294.055 427.223 296.623C432.016 298.959 437.455 296.624 441.146 293.262C443.307 288.878 444.429 283.051 440.864 279.103C437.163 273.766 428.73 272.991 424.098 277.659ZM346.531 210.927C338.228 208.75 335.874 196.742 342.573 191.368C348.953 185.092 361.148 189.666 361.526 198.631C362.68 206.567 354.075 213.584 346.531 210.927ZM356.9 164.982C361.331 168.033 368.285 166.714 369.663 160.96C371.562 154.597 363.407 148.949 358.109 153.101C353.897 155.853 354.629 161.31 356.9 164.982ZM478.045 282.095C474.307 283.849 469.326 284.252 466.93 280.226C462.703 275.05 468.727 266.647 475.005 268.744C481.204 270.108 481.822 277.893 478.045 282.095ZM414.145 215.889C415.267 221.571 422.424 225.044 427.522 221.989C433.387 219.661 434.7 210.723 429.906 206.713C427.676 204.224 424.158 203.997 421.033 204.186C419.586 205.014 418.134 205.838 416.65 206.627L416.594 206.718C414.913 209.439 412.956 212.606 414.145 215.889Z" fill="#F8F8F8"/>
</g>
<g opacity="0.6" filter="url(#filter1_d_0_1)">
<circle cx="315.131" cy="315.132" r="183.884" transform="rotate(-117.637 315.131 315.132)" fill="url(#paint2_linear_0_1)"/>
</g>
<ellipse opacity="0.6" cx="315.664" cy="315.53" rx="182.212" ry="180.54" transform="rotate(62.3628 315.664 315.53)" fill="url(#paint3_linear_0_1)"/>
<g opacity="0.6" filter="url(#filter2_d_0_1)">
<circle cx="315.132" cy="315.131" r="40.12" transform="rotate(-117.637 315.132 315.131)" fill="url(#paint4_linear_0_1)"/>
</g>
<circle opacity="0.6" cx="315.131" cy="315.131" r="33.4334" transform="rotate(62.3628 315.131 315.131)" fill="url(#paint5_linear_0_1)"/>
<path d="M215.735 125.304L212.08 136.994L223.769 140.648L227.424 128.959L215.735 125.304ZM414.527 504.959L418.182 493.269L406.493 489.615L402.838 501.304L414.527 504.959ZM218.423 133.672L409.181 497.982L411.839 496.591L221.081 132.281L218.423 133.672Z" fill="url(#paint6_linear_0_1)"/>
<path d="M200.434 496.125L212.384 493.446L209.705 481.495L197.754 484.174L200.434 496.125ZM429.828 134.139L417.877 136.818L420.557 148.769L432.507 146.089L429.828 134.139ZM206.336 489.613L426.459 142.257L423.925 140.651L203.802 488.007L206.336 489.613Z" fill="url(#paint7_linear_0_1)"/>
<path d="M529.224 323.966L520.929 314.956L511.919 323.252L520.214 332.262L529.224 323.966ZM101.038 306.298L109.334 315.308L118.343 307.012L110.048 298.002L101.038 306.298ZM520.633 322.11L109.752 305.156L109.629 308.153L520.51 325.107L520.633 322.11Z" fill="url(#paint8_linear_0_1)"/>
<path d="M203.851 375.977L198.015 373.027C199.052 371.912 199.274 370.1 198.477 368.578C197.361 366.445 194.651 365.69 192.438 366.849L188.57 368.875L194.784 380.725L197.167 379.477L194.232 373.874L200.939 377.502L203.851 375.977ZM192.188 369.988L193.718 369.187C194.519 368.767 195.586 369.033 196.029 369.879C196.472 370.724 196.094 371.756 195.281 372.172L193.748 372.966L192.188 369.988ZM207.153 362.133L205.924 359.788L198.777 363.53L204.984 375.384L212.131 371.642L210.891 369.274L206.126 371.769L204.844 369.32L208.933 367.179L207.689 364.804L203.6 366.945L202.387 364.628L207.153 362.133ZM216.944 369.309L217.076 369.24L216.638 361.262L222.989 366.144L223.129 366.071L220.705 352.048L218.131 353.396L219.442 360.318L213.801 355.719L213.757 355.742L214.32 363.009L209.366 357.985L206.799 359.329L216.944 369.309ZM233.847 360.271L236.428 358.92L224.397 349.74L224.324 349.779L225.022 364.892L227.596 363.544L227.487 361.493L232.23 359.009L233.847 360.271ZM227.351 358.978L227.14 355.05L230.241 357.465L227.351 358.978ZM246.694 353.544L240.857 350.594C241.895 349.479 242.117 347.667 241.32 346.145C240.203 344.012 237.494 343.257 235.28 344.416L231.412 346.442L237.627 358.292L240.009 357.044L237.075 351.441L243.782 355.069L246.694 353.544ZM235.031 347.555L236.56 346.754C237.362 346.334 238.429 346.6 238.872 347.446C239.314 348.291 238.936 349.323 238.124 349.739L236.59 350.533L235.031 347.555ZM245.068 339.291L241.623 341.105L247.826 352.951L251.275 351.145C255.106 349.139 256.274 345.679 254.349 342.003C252.412 338.304 248.895 337.278 245.068 339.291ZM250.046 348.763L248.958 349.332L245.23 342.214L246.297 341.656C248.642 340.427 250.778 341.033 251.94 343.254C253.096 345.46 252.377 347.542 250.046 348.763Z" fill="#F8F8F8"/>
<path d="M221.284 242.483L217.271 248.814L214.703 238.057L214.591 237.986L207.286 249.513L209.558 250.952L213.57 244.621L216.144 255.401L216.249 255.468L223.562 243.927L221.284 242.483ZM223.585 260.127C226.825 262.179 231.146 261.223 233.185 258.004C235.242 254.758 234.272 250.428 231.039 248.38C227.807 246.331 223.484 247.307 221.427 250.553C219.388 253.771 220.36 258.083 223.585 260.127ZM225.043 257.827C223.073 256.578 222.484 253.955 223.729 251.992C224.982 250.015 227.609 249.42 229.579 250.668C231.557 251.921 232.147 254.556 230.894 256.533C229.65 258.496 227.02 259.08 225.043 257.827ZM241.543 255.36L238.25 253.284L231.092 264.579L234.381 266.663C238.034 268.978 241.614 268.259 243.836 264.754C246.071 261.227 245.201 257.668 241.543 255.36ZM235.83 264.407L234.792 263.75L239.093 256.962L240.11 257.607C242.346 259.024 242.889 261.176 241.547 263.294C240.214 265.397 238.052 265.816 235.83 264.407ZM254.296 266.577L255.713 264.34L248.898 260.021L241.736 271.324L248.551 275.643L249.982 273.385L245.438 270.506L246.918 268.171L250.816 270.641L252.251 268.377L248.353 265.906L249.752 263.698L254.296 266.577Z" fill="#F8F8F8"/>
<path d="M331.239 193.932L331.622 184.66L328.959 184.55L328.823 187.843L318.116 187.401L318.005 190.096L328.712 190.538L328.577 193.822L331.239 193.932ZM317.315 200.577C317.157 204.409 320.146 207.673 323.953 207.83C327.793 207.988 331.057 204.982 331.215 201.159C331.373 197.336 328.367 194.079 324.527 193.921C320.72 193.764 317.472 196.762 317.315 200.577ZM320.035 200.689C320.131 198.359 322.109 196.538 324.431 196.634C326.77 196.73 328.599 198.708 328.503 201.039C328.407 203.378 326.42 205.206 324.082 205.11C321.759 205.014 319.939 203.028 320.035 200.689ZM316.799 219.315L323.822 214.836L330.188 219.394L330.316 216.292L324.691 212.296L330.471 212.535L330.582 209.856L317.212 209.304L317.102 211.983L322.957 212.225L316.934 216.047L316.799 219.315ZM327.137 229.104L329.783 229.214L330.116 221.152L316.746 220.6L316.414 228.662L319.084 228.772L319.306 223.398L322.068 223.512L321.878 228.123L324.556 228.234L324.747 223.622L327.359 223.73L327.137 229.104ZM329.403 239.242L321.913 238.933L329.945 231.331L329.951 231.198L316.316 230.635L316.205 233.322L323.694 233.631L315.645 241.25L315.64 241.374L329.291 241.938L329.403 239.242Z" fill="#F8F8F8"/>
<path d="M415.087 260.216L412.506 261.568L424.536 270.747L424.61 270.709L423.911 255.596L421.337 256.943L421.446 258.994L416.703 261.478L415.087 260.216ZM421.582 261.509L421.793 265.437L418.692 263.022L421.582 261.509ZM412.734 276.552L412.174 268.075L418.816 273.368L421.338 272.047L409.454 262.791L409.366 262.837L410.182 277.888L412.734 276.552ZM397.776 269.28L395.195 270.632L407.226 279.811L407.299 279.773L406.601 264.66L404.027 266.007L404.136 268.058L399.393 270.542L397.776 269.28ZM404.272 270.573L404.483 274.501L401.382 272.086L404.272 270.573ZM394.879 270.797L392.143 272.23L391.983 277.382L387.65 274.582L384.915 276.015L391.752 280.287L391.342 287.753L394.078 286.321L394.221 281.673L398.13 284.199L400.865 282.767L394.498 278.839L394.879 270.797Z" fill="#F8F8F8"/>
<path d="M406.075 385.901L409.367 387.978L416.526 376.683L413.237 374.599C409.584 372.284 406.004 373.002 403.782 376.508C401.547 380.035 402.417 383.593 406.075 385.901ZM411.788 376.855L412.826 377.512L408.525 384.299L407.508 383.655C405.271 382.238 404.729 380.086 406.07 377.968C407.403 375.865 409.565 375.446 411.788 376.855ZM393.322 374.685L391.904 376.921L398.72 381.24L405.882 369.938L399.067 365.619L397.636 367.877L402.18 370.756L400.7 373.091L396.802 370.62L395.367 372.885L399.265 375.355L397.865 377.564L393.322 374.685ZM384.838 369.309L383.403 371.573L390.218 375.892L397.407 364.547L395.135 363.108L392.261 367.644L388.362 365.174L386.927 367.439L390.825 369.909L389.381 372.188L384.838 369.309ZM389.307 359.434L387.035 357.994L379.873 369.297L382.145 370.737L389.307 359.434Z" fill="#F8F8F8"/>
<path d="M311.238 464.875L311.349 462.188L307.003 462.008L307.086 460.001C307.193 457.413 305.257 455.215 302.777 455.113C300.289 455.01 298.169 457.041 298.063 459.629L297.869 464.323L311.238 464.875ZM304.432 459.892L304.341 461.898L300.642 461.746L300.725 459.739C300.771 458.627 301.629 457.757 302.641 457.799C303.678 457.842 304.486 458.781 304.432 459.892ZM312.111 443.726L306.638 447.305C306.191 445.849 304.733 444.751 303.016 444.68C300.611 444.58 298.602 446.55 298.499 449.046L298.319 453.409L311.689 453.952L311.8 451.265L305.48 451.004L311.976 447.01L312.111 443.726ZM301.092 450.831L301.164 449.106C301.201 448.202 301.965 447.411 302.918 447.45C303.872 447.49 304.577 448.333 304.531 449.245L304.451 450.97L301.092 450.831ZM312.683 436.098C312.841 432.266 309.852 429.002 306.046 428.845C302.206 428.687 298.941 431.693 298.783 435.516C298.626 439.339 301.632 442.595 305.472 442.754C309.278 442.911 312.526 439.913 312.683 436.098ZM309.963 435.986C309.867 438.316 307.889 440.137 305.567 440.041C303.228 439.945 301.399 437.967 301.495 435.636C301.592 433.297 303.578 431.468 305.917 431.565C308.239 431.661 310.059 433.647 309.963 435.986ZM299.738 419.023L299.355 428.295L302.018 428.405L302.154 425.112L312.861 425.554L312.972 422.859L302.265 422.417L302.4 419.133L299.738 419.023ZM313.662 412.378C313.82 408.546 310.831 405.282 307.024 405.125C303.184 404.967 299.92 407.972 299.762 411.796C299.604 415.619 302.61 418.875 306.45 419.034C310.257 419.191 313.505 416.193 313.662 412.378ZM310.942 412.265C310.846 414.596 308.868 416.417 306.546 416.321C304.207 416.225 302.378 414.247 302.474 411.916C302.57 409.577 304.557 407.748 306.895 407.845C309.218 407.941 311.038 409.927 310.942 412.265ZM314.286 397.25C314.37 395.226 313.55 393.755 312.429 392.529L310.192 393.982C311.027 394.906 311.638 395.994 311.587 397.222C311.502 399.287 309.573 401.334 307.193 401.236C304.854 401.139 303.031 399.012 303.12 396.864C303.167 395.711 303.76 394.639 304.693 393.764L302.642 392.125C301.233 393.471 300.481 394.986 300.384 396.726C300.229 400.492 303.291 403.8 307.064 403.955C310.821 404.111 314.127 401.107 314.286 397.25ZM314.778 385.324C314.936 381.492 311.947 378.228 308.141 378.071C304.301 377.913 301.036 380.918 300.878 384.742C300.721 388.565 303.727 391.821 307.567 391.98C311.374 392.137 314.621 389.139 314.778 385.324ZM312.058 385.211C311.962 387.542 309.984 389.363 307.662 389.267C305.323 389.17 303.494 387.192 303.59 384.862C303.687 382.523 305.673 380.694 308.012 380.791C310.334 380.887 312.155 382.873 312.058 385.211ZM312.321 373.799L301.622 373.357L301.511 376.045L314.881 376.596L315.214 368.535L312.543 368.425L312.321 373.799Z" fill="#F8F8F8"/>

<defs>
<filter id="filter0_f_0_1" x="146.81" y="147.679" width="337.583" height="333.395" filterUnits="userSpaceOnUse" color-interpolation-filters="sRGB">
<feFlood flood-opacity="0" result="BackgroundImageFix"/>
<feBlend mode="normal" in="SourceGraphic" in2="BackgroundImageFix" result="shape"/>
<feGaussianBlur stdDeviation="2" result="effect1_foregroundBlur_0_1"/>
</filter>
<filter id="filter1_d_0_1" x="120.21" y="120.21" width="389.842" height="389.842" filterUnits="userSpaceOnUse" color-interpolation-filters="sRGB">
<feFlood flood-opacity="0" result="BackgroundImageFix"/>
<feColorMatrix in="SourceAlpha" type="matrix" values="0 0 0 0 0 0 0 0 0 0 0 0 0 0 0 0 0 0 127 0" result="hardAlpha"/>
<feOffset/>
<feGaussianBlur stdDeviation="5.5"/>
<feComposite in2="hardAlpha" operator="out"/>
<feColorMatrix type="matrix" values="0 0 0 0 0 0 0 0 0 0 0 0 0 0 0 0 0 0 1 0"/>
<feBlend mode="normal" in2="BackgroundImageFix" result="effect1_dropShadow_0_1"/>
<feBlend mode="normal" in="SourceGraphic" in2="effect1_dropShadow_0_1" result="shape"/>
</filter>
<filter id="filter2_d_0_1" x="264.003" y="264.003" width="102.256" height="102.257" filterUnits="userSpaceOnUse" color-interpolation-filters="sRGB">
<feFlood flood-opacity="0" result="BackgroundImageFix"/>
<feColorMatrix in="SourceAlpha" type="matrix" values="0 0 0 0 0 0 0 0 0 0 0 0 0 0 0 0 0 0 127 0" result="hardAlpha"/>
<feOffset/>
<feGaussianBlur stdDeviation="5.5"/>
<feComposite in2="hardAlpha" operator="out"/>
<feColorMatrix type="matrix" values="0 0 0 0 0 0 0 0 0 0 0 0 0 0 0 0 0 0 0.5 0"/>
<feBlend mode="normal" in2="BackgroundImageFix" result="effect1_dropShadow_0_1"/>
<feBlend mode="normal" in="SourceGraphic" in2="effect1_dropShadow_0_1" result="shape"/>
</filter>
<filter id="filter3_d_0_1" x="280.266" y="467.941" width="69.7986" height="80.0939" filterUnits="userSpaceOnUse" color-interpolation-filters="sRGB">
<feFlood flood-opacity="0" result="BackgroundImageFix"/>
<feColorMatrix in="SourceAlpha" type="matrix" values="0 0 0 0 0 0 0 0 0 0 0 0 0 0 0 0 0 0 127 0" result="hardAlpha"/>
<feOffset dy="4"/>
<feGaussianBlur stdDeviation="2"/>
<feComposite in2="hardAlpha" operator="out"/>
<feColorMatrix type="matrix" values="0 0 0 0 0 0 0 0 0 0 0 0 0 0 0 0 0 0 0.25 0"/>
<feBlend mode="normal" in2="BackgroundImageFix" result="effect1_dropShadow_0_1"/>
<feBlend mode="normal" in="SourceGraphic" in2="effect1_dropShadow_0_1" result="shape"/>
</filter>
<filter id="filter4_d_0_1" x="274.469" y="478.955" width="81.4396" height="94.0017" filterUnits="userSpaceOnUse" color-interpolation-filters="sRGB">
<feFlood flood-opacity="0" result="BackgroundImageFix"/>
<feColorMatrix in="SourceAlpha" type="matrix" values="0 0 0 0 0 0 0 0 0 0 0 0 0 0 0 0 0 0 127 0" result="hardAlpha"/>
<feOffset dy="4"/>
<feGaussianBlur stdDeviation="2"/>
<feComposite in2="hardAlpha" operator="out"/>
<feColorMatrix type="matrix" values="0 0 0 0 0 0 0 0 0 0 0 0 0 0 0 0 0 0 0.25 0"/>
<feBlend mode="normal" in2="BackgroundImageFix" result="effect1_dropShadow_0_1"/>
<feBlend mode="normal" in="SourceGraphic" in2="effect1_dropShadow_0_1" result="shape"/>
</filter>
<linearGradient id="paint0_linear_0_1" x1="537.783" y1="93.0347" x2="93.1186" y2="537.699" gradientUnits="userSpaceOnUse">
<stop stop-color="#001F76"/>
<stop offset="1" stop-color="#00E3AE"/>
</linearGradient>
<linearGradient id="paint1_linear_0_1" x1="315.367" y1="629.876" x2="315.367" y2="0.857855" gradientUnits="userSpaceOnUse">
<stop stop-color="#0F659E"/>
<stop offset="1" stop-color="#C3DCF2"/>
</linearGradient>
<linearGradient id="paint2_linear_0_1" x1="499.015" y1="131.248" x2="131.248" y2="499.015" gradientUnits="userSpaceOnUse">
<stop stop-color="white"/>
<stop offset="1" stop-color="#D8E8F7"/>
</linearGradient>
<linearGradient id="paint3_linear_0_1" x1="497.876" y1="134.99" x2="136.811" y2="499.398" gradientUnits="userSpaceOnUse">
<stop stop-color="#001F76"/>
<stop offset="1" stop-color="#00E3AE"/>
</linearGradient>
<linearGradient id="paint4_linear_0_1" x1="355.252" y1="275.011" x2="275.011" y2="355.251" gradientUnits="userSpaceOnUse">
<stop stop-color="#001F76"/>
<stop offset="1" stop-color="#00E3AE"/>
</linearGradient>
<linearGradient id="paint5_linear_0_1" x1="348.565" y1="281.698" x2="281.698" y2="348.565" gradientUnits="userSpaceOnUse">
<stop stop-color="#001F76"/>
<stop offset="1" stop-color="#00E3AE"/>
</linearGradient>
<linearGradient id="paint6_linear_0_1" x1="222.471" y1="164.845" x2="223.972" y2="163.933" gradientUnits="userSpaceOnUse">
<stop stop-color="#001F76"/>
<stop offset="1" stop-color="#00E3AE"/>
</linearGradient>
<linearGradient id="paint7_linear_0_1" x1="231.309" y1="470.521" x2="229.768" y2="469.677" gradientUnits="userSpaceOnUse">
<stop stop-color="#001F76"/>
<stop offset="1" stop-color="#00E3AE"/>
</linearGradient>
<linearGradient id="paint8_linear_0_1" x1="491.613" y1="310.029" x2="491.653" y2="311.785" gradientUnits="userSpaceOnUse">
<stop stop-color="#001F76"/>
<stop offset="1" stop-color="#00E3AE"/>
</linearGradient>
<linearGradient id="paint9_linear_0_1" x1="315.214" y1="467.941" x2="298.667" y2="535.962" gradientUnits="userSpaceOnUse">
<stop stop-color="#001F76"/>
<stop offset="1" stop-color="#00E3AE"/>
</linearGradient>
<linearGradient id="paint10_linear_0_1" x1="315.245" y1="478.955" x2="295.44" y2="560.064" gradientUnits="userSpaceOnUse">
<stop stop-color="#001F76"/>
<stop offset="1" stop-color="#00E3AE"/>
</linearGradient>
</defs>
</svg>
