<svg width="30" height="25" viewBox="0 0 30 25" fill="none" xmlns="http://www.w3.org/2000/svg">
<path d="M11.2583 23.4587C11.2583 23.3302 11.2583 23.2193 11.2583 23.1025C11.3927 20.9949 11.5212 18.8755 11.679 16.7679C11.7147 16.5573 11.822 16.3656 11.9828 16.2249C16.0063 12.5856 20.0375 8.95415 24.0766 5.33045C24.2251 5.20517 24.3656 5.07062 24.4972 4.9276C24.5556 4.85754 24.6141 4.71158 24.579 4.65319C24.5488 4.60907 24.5088 4.57246 24.4622 4.54615C24.4157 4.51983 24.3637 4.50451 24.3102 4.50139C23.9846 4.56814 23.67 4.68016 23.3755 4.83418C20.7814 6.45725 18.1991 8.09785 15.6109 9.7326C13.1298 11.2895 10.6507 12.8464 8.17353 14.4033C8.07743 14.4745 7.9647 14.5199 7.84608 14.5352C7.72745 14.5505 7.60687 14.5353 7.49581 14.4909C5.35749 13.802 3.21333 13.1364 1.06917 12.4533C0.822301 12.3777 0.586553 12.2697 0.368085 12.1322C0.264622 12.0869 0.175066 12.015 0.108602 11.9237C0.0421383 11.8325 0.00115442 11.7252 -0.0101429 11.6129C-0.0214402 11.5006 -0.00263977 11.3873 0.0443176 11.2846C0.091275 11.182 0.164701 11.0937 0.257078 11.0287C0.62897 10.7129 1.04911 10.4586 1.50151 10.2756C3.41782 9.51074 5.34581 8.78094 7.2738 8.03363L27.7631 0.163464C29.0484 -0.3328 29.9832 0.326936 29.8138 1.69312C29.6794 2.79074 29.4048 3.8767 29.177 4.9568C27.8683 11.1299 26.5537 17.2992 25.2333 23.4645C24.8945 25.0467 23.837 25.4437 22.5342 24.4804L16.3003 19.9089L15.903 19.6228L14.3957 21.0766L12.4443 22.9682C12.2942 23.1312 12.1103 23.2595 11.9055 23.3442C11.7006 23.4289 11.4798 23.468 11.2583 23.4587Z" fill="white"/>
</svg>
