<svg width="136" height="101" viewBox="0 0 136 101" fill="none" xmlns="http://www.w3.org/2000/svg">
<path opacity="0.2" d="M18.8793 101H117.063C129.516 101 136 94.5323 136 82.1744V49.8359C136 43.3682 135.082 40.5963 132.098 36.6695L113.276 11.434C106.562 2.48313 103.062 0 92.7325 0H43.2675C32.881 0 29.3806 2.48313 22.7241 11.434L3.84473 36.6695C0.918144 40.5963 0 43.3682 0 49.8359V82.1744C0 94.5323 6.48439 101 18.8793 101ZM68 65.4854C59.2776 65.4854 53.8262 58.498 53.8262 51.2796V50.8176C53.8262 48.1612 52.2194 45.6204 48.9485 45.6204H14.4034C12.2802 45.6204 11.9359 43.8879 12.9114 42.502L33.8565 14.2058C36.2667 10.8565 39.308 9.58605 43.2101 9.58605H92.7899C96.6346 9.58605 99.6759 10.8565 102.143 14.2058L123.031 42.502C124.007 43.8879 123.662 45.6204 121.539 45.6204H86.9941C83.7232 45.6204 82.1738 48.1612 82.1738 50.8176V51.2796C82.1738 58.498 76.7224 65.4854 68 65.4854Z" fill="#F8F8F8"/>
</svg>
