<svg width="31" height="25" viewBox="0 0 31 25" fill="none" xmlns="http://www.w3.org/2000/svg">
<path d="M6.21268 15.055C4.49734 14.6478 3.16198 13.759 2.20932 12.3205C1.51774 11.275 1.15693 10.0455 1.17387 8.79207C1.48328 8.92778 1.76827 9.08384 2.07089 9.1897C2.37109 9.2977 2.67856 9.38431 2.99099 9.4489C3.32663 9.51745 3.66769 9.55605 4.01016 9.56425C2.65308 8.58851 1.75198 7.33458 1.38964 5.73187C1.02264 4.17631 1.26545 2.53925 2.06818 1.15718C5.488 5.18226 9.8035 7.38886 15.0784 7.75663C15.0418 7.52321 15.0079 7.32779 14.9834 7.13102C14.8689 6.3232 14.9163 5.50068 15.1227 4.71134C15.3291 3.92199 15.6905 3.1816 16.1858 2.53325C16.6726 1.85707 17.2938 1.28868 18.0105 0.86368C18.7271 0.438681 19.5238 0.166229 20.3507 0.0633825C22.4148 -0.208032 24.2102 0.393152 25.707 1.84929C25.7486 1.89715 25.8031 1.93205 25.864 1.94986C25.9248 1.96766 25.9895 1.96761 26.0504 1.94971C27.312 1.67537 28.5252 1.21286 29.6493 0.577712C29.702 0.531674 29.7693 0.505723 29.8393 0.504431C29.6133 1.20925 29.2606 1.86689 28.7984 2.44504C28.3389 3.02003 27.7889 3.51642 27.17 3.91475C27.7632 3.86031 28.3501 3.75128 28.9233 3.58906C29.5077 3.42852 30.0803 3.22811 30.6373 2.98923C30.6355 3.04724 30.6112 3.10227 30.5694 3.14258C29.7868 4.27564 28.8247 5.27351 27.7209 6.09693C27.6713 6.12648 27.631 6.16938 27.6046 6.22073C27.5782 6.27208 27.5668 6.32981 27.5716 6.38734C27.7386 11.2077 25.8577 15.9642 22.7785 19.3406C20.3928 21.9912 17.2304 23.8199 13.7431 24.5653C12.7831 24.7754 11.8079 24.9079 10.8267 24.9616C8.38992 25.1206 5.94613 24.785 3.64239 23.975C2.42639 23.544 1.26029 22.9835 0.164209 22.3031C0.0991166 22.2721 0.0427022 22.2255 0 22.1674C2.32798 22.4309 4.68359 22.0483 6.80844 21.0614C7.67018 20.6624 8.90783 19.8929 9.24031 19.5482C7.43812 19.4614 5.92363 18.7747 4.71312 17.4516C4.11255 16.7955 3.66279 16.0159 3.3954 15.1676C3.86064 15.242 4.33164 15.2743 4.80268 15.264C5.27912 15.2484 5.7522 15.1782 6.21268 15.055Z" fill="white"/>
</svg>
