<svg width="161" height="161" viewBox="0 0 161 161" fill="none" xmlns="http://www.w3.org/2000/svg">
<g filter="url(#filter0_d_299_75)">
<path d="M118.807 127.772C126.417 121.591 132.44 113.679 136.371 104.697C140.303 95.7149 142.03 85.923 141.407 76.1379C140.785 66.3529 137.832 56.8584 132.795 48.4467C127.757 40.0349 120.781 32.9496 112.449 27.7819" stroke="#FFDD2A" stroke-width="2" stroke-linecap="round"/>
</g>
<g filter="url(#filter1_d_299_75)">
<path d="M23.0181 57.0214C19.5614 65.5845 18.0777 74.8162 18.6772 84.0312C19.2766 93.2462 21.9438 102.208 26.4808 110.251" stroke="#FFDD2A" stroke-width="2" stroke-linecap="round"/>
</g>
<path d="M68.9022 63.18L60.2098 82.8323L51.5384 63.18H44.3367L60.1048 97.8655H60.3568L76.1878 63.18H68.9022ZM79.5892 97.0257H86.3919V63.18H79.5892V97.0257ZM92.2708 97.0257H99.0735V86.0237H104.155C110.705 86.0237 116.059 80.9007 116.059 74.6229C116.059 68.324 110.705 63.18 104.155 63.18H92.2708V97.0257ZM104.155 79.305L99.0735 79.284V69.9197H104.155C106.968 69.9197 109.257 71.9984 109.257 74.5599C109.257 77.1844 106.968 79.326 104.155 79.305Z" fill="#F8F8F8"/>
<path d="M33.5548 37.0082C42.1802 27.6885 53.415 21.1855 65.7926 18.348C78.1702 15.5105 91.1158 16.4703 102.94 21.1022C114.763 25.734 124.916 33.8228 132.073 44.3126C139.23 54.8025 143.058 67.2063 143.058 79.905" stroke="url(#paint0_linear_299_75)" stroke-width="7" stroke-linecap="round" stroke-linejoin="round"/>
<path d="M106.622 137.129C98.9958 140.689 90.7343 142.69 82.3235 143.012C73.9127 143.335 65.5222 141.973 57.6454 139.006C49.7685 136.039 42.5641 131.528 36.4557 125.737C30.3472 119.947 25.458 112.993 22.0752 105.286" stroke="url(#paint1_linear_299_75)" stroke-width="7" stroke-linecap="round"/>
<g opacity="0.8" filter="url(#filter2_d_299_75)">
<path d="M14.2353 73.5439L13.9912 73.3696C13.9673 73.403 13.9505 73.441 13.9419 73.4813L14.2353 73.5439ZM18.8798 88.4924L18.7177 88.7449C18.8238 88.813 18.9611 88.8075 19.0615 88.7312C19.1618 88.6548 19.2037 88.5238 19.1663 88.4034L18.8798 88.4924ZM11.988 84.0666L11.6947 84.0039C11.6686 84.126 11.7209 84.2515 11.8259 84.319L11.988 84.0666ZM18.8798 67.0406H19.1798C19.1798 66.9102 19.0955 66.7948 18.9713 66.755C18.8471 66.7152 18.7114 66.7602 18.6356 66.8663L18.8798 67.0406ZM18.8798 71.6019L19.1423 71.7471C19.1669 71.7026 19.1798 71.6527 19.1798 71.6019H18.8798ZM25.7785 84.0666L25.9406 84.319C26.0457 84.2515 26.0979 84.126 26.0719 84.0039L25.7785 84.0666ZM18.8867 71.6019H18.5867C18.5867 71.6527 18.5996 71.7026 18.6242 71.7471L18.8867 71.6019ZM18.8867 67.0406L19.1309 66.8663C19.0551 66.7602 18.9194 66.7152 18.7952 66.755C18.671 66.7948 18.5867 66.9102 18.5867 67.0406H18.8867ZM23.5312 73.5439L23.8246 73.4813C23.816 73.441 23.7993 73.403 23.7754 73.3696L23.5312 73.5439ZM18.8867 88.4924L18.6003 88.4034C18.5628 88.5238 18.6047 88.6548 18.705 88.7312C18.8054 88.8075 18.9428 88.813 19.0489 88.7449L18.8867 88.4924ZM13.9488 73.6329L18.5933 88.5815L19.1663 88.4034L14.5218 73.4549L13.9488 73.6329ZM19.0419 88.24L12.1501 83.8141L11.8259 84.319L18.7177 88.7449L19.0419 88.24ZM12.2814 84.1292L14.5287 73.6066L13.9419 73.4813L11.6947 84.0039L12.2814 84.1292ZM14.4794 73.7183L19.1239 67.215L18.6356 66.8663L13.9912 73.3696L14.4794 73.7183ZM18.5798 67.0406V71.6019H19.1798V67.0406H18.5798ZM18.6172 71.4568L11.7255 83.9214L12.2506 84.2117L19.1423 71.7471L18.6172 71.4568ZM11.988 84.3666H25.7785V83.7666H11.988V84.3666ZM26.041 83.9214L19.1493 71.4568L18.6242 71.7471L25.5159 84.2117L26.041 83.9214ZM19.1867 71.6019V67.0406H18.5867V71.6019H19.1867ZM18.6426 67.215L23.2871 73.7183L23.7754 73.3696L19.1309 66.8663L18.6426 67.215ZM23.2378 73.6066L25.4851 84.1292L26.0719 84.0039L23.8246 73.4813L23.2378 73.6066ZM25.6164 83.8141L18.7246 88.24L19.0489 88.7449L25.9406 84.319L25.6164 83.8141ZM19.1732 88.5815L23.8177 73.6329L23.2447 73.4549L18.6003 88.4034L19.1732 88.5815Z" fill="#F8F8F8"/>
</g>
<g opacity="0.8" filter="url(#filter3_d_299_75)">
<path d="M128.963 110.114L128.871 109.828C128.831 109.841 128.795 109.861 128.764 109.888L128.963 110.114ZM123.775 124.882L123.494 124.988C123.539 125.106 123.652 125.184 123.778 125.182C123.904 125.181 124.016 125.101 124.058 124.982L123.775 124.882ZM120.883 117.219L120.685 116.994C120.591 117.077 120.558 117.209 120.602 117.325L120.883 117.219ZM136.569 107.664L136.81 107.843C136.888 107.738 136.889 107.595 136.813 107.489C136.737 107.383 136.601 107.338 136.477 107.378L136.569 107.664ZM133.849 111.325L133.973 111.598C134.019 111.577 134.059 111.545 134.09 111.504L133.849 111.325ZM131.952 125.444L131.931 125.744C132.056 125.752 132.173 125.683 132.225 125.569L131.952 125.444ZM133.854 111.329L133.614 111.15C133.583 111.191 133.564 111.239 133.557 111.289L133.854 111.329ZM136.575 107.668L136.875 107.674C136.877 107.543 136.795 107.426 136.672 107.384C136.548 107.342 136.412 107.384 136.334 107.489L136.575 107.668ZM136.424 115.658L136.697 115.783C136.714 115.745 136.723 115.705 136.724 115.664L136.424 115.658ZM123.78 124.887L123.603 124.644C123.502 124.719 123.457 124.849 123.492 124.97C123.527 125.091 123.634 125.177 123.76 125.186L123.78 124.887ZM128.68 110.014L123.492 124.783L124.058 124.982L129.246 110.213L128.68 110.014ZM124.055 124.776L121.163 117.113L120.602 117.325L123.494 124.988L124.055 124.776ZM121.081 117.445L129.161 110.339L128.764 109.888L120.685 116.994L121.081 117.445ZM129.055 110.399L136.661 107.949L136.477 107.378L128.871 109.828L129.055 110.399ZM136.329 107.485L133.608 111.146L134.09 111.504L136.81 107.843L136.329 107.485ZM133.725 111.052L120.759 116.946L121.007 117.493L133.973 111.598L133.725 111.052ZM120.704 117.46L131.773 125.685L132.131 125.204L121.062 116.979L120.704 117.46ZM132.249 125.485L134.152 111.369L133.557 111.289L131.654 125.404L132.249 125.485ZM134.095 111.508L136.816 107.847L136.334 107.489L133.614 111.15L134.095 111.508ZM136.275 107.662L136.124 115.652L136.724 115.664L136.875 107.674L136.275 107.662ZM136.151 115.533L131.679 125.32L132.225 125.569L136.697 115.783L136.151 115.533ZM131.972 125.145L123.801 124.587L123.76 125.186L131.931 125.744L131.972 125.145ZM123.957 125.129L136.601 115.9L136.247 115.416L123.603 124.644L123.957 125.129Z" fill="#F8F8F8"/>
</g>
<path d="M64.9025 65.1341L65.1467 65.3085C65.1706 65.275 65.1873 65.237 65.1959 65.1968L64.9025 65.1341ZM60.2581 50.1856L60.4202 49.9332C60.3141 49.865 60.1767 49.8705 60.0764 49.9469C59.976 50.0232 59.9341 50.1542 59.9716 50.2746L60.2581 50.1856ZM67.1498 54.6115L67.4432 54.6741C67.4692 54.552 67.417 54.4265 67.3119 54.359L67.1498 54.6115ZM60.258 71.6374L59.958 71.6374C59.958 71.7678 60.0423 71.8833 60.1665 71.9231C60.2907 71.9629 60.4264 71.9179 60.5022 71.8117L60.258 71.6374ZM60.258 67.0761L59.9955 66.931C59.9709 66.9754 59.958 67.0253 59.958 67.0761L60.258 67.0761ZM53.3593 54.6115L53.1972 54.359C53.0922 54.4265 53.0399 54.552 53.066 54.6741L53.3593 54.6115ZM60.2511 67.0761L60.5511 67.0761C60.5511 67.0253 60.5382 66.9754 60.5136 66.931L60.2511 67.0761ZM60.2511 71.6374L60.0069 71.8117C60.0827 71.9179 60.2184 71.9629 60.3426 71.9231C60.4668 71.8833 60.5511 71.7678 60.5511 71.6374L60.2511 71.6374ZM55.6066 65.1341L55.3132 65.1968C55.3218 65.237 55.3386 65.275 55.3625 65.3085L55.6066 65.1341ZM60.2511 50.1856L60.5376 50.2746C60.575 50.1542 60.5331 50.0232 60.4328 49.9469C60.3324 49.8705 60.1951 49.865 60.089 49.9332L60.2511 50.1856ZM65.189 65.0451L60.5445 50.0966L59.9716 50.2746L64.616 65.2231L65.189 65.0451ZM60.0959 50.438L66.9877 54.8639L67.3119 54.359L60.4202 49.9332L60.0959 50.438ZM66.8564 54.5488L64.6091 65.0715L65.1959 65.1968L67.4432 54.6741L66.8564 54.5488ZM64.6584 64.9598L60.0139 71.463L60.5022 71.8117L65.1467 65.3085L64.6584 64.9598ZM60.558 71.6374L60.558 67.0761L59.958 67.0761L59.958 71.6374L60.558 71.6374ZM60.5206 67.2213L67.4123 54.7566L66.8872 54.4663L59.9955 66.931L60.5206 67.2213ZM67.1498 54.3115L53.3593 54.3115L53.3593 54.9115L67.1498 54.9115L67.1498 54.3115ZM53.0968 54.7566L59.9885 67.2213L60.5136 66.931L53.6219 54.4663L53.0968 54.7566ZM59.9511 67.0761L59.9511 71.6374L60.5511 71.6374L60.5511 67.0761L59.9511 67.0761ZM60.4952 71.463L55.8507 64.9598L55.3625 65.3085L60.0069 71.8117L60.4952 71.463ZM55.9 65.0715L53.6527 54.5488L53.066 54.6741L55.3132 65.1968L55.9 65.0715ZM53.5215 54.8639L60.4132 50.438L60.089 49.9332L53.1972 54.359L53.5215 54.8639ZM59.9646 50.0966L55.3201 65.0451L55.8931 65.2231L60.5376 50.2746L59.9646 50.0966Z" fill="#F8F8F8"/>
<defs>
<filter id="filter0_d_299_75" x="107.449" y="22.7818" width="39.0825" height="109.99" filterUnits="userSpaceOnUse" color-interpolation-filters="sRGB">
<feFlood flood-opacity="0" result="BackgroundImageFix"/>
<feColorMatrix in="SourceAlpha" type="matrix" values="0 0 0 0 0 0 0 0 0 0 0 0 0 0 0 0 0 0 127 0" result="hardAlpha"/>
<feOffset/>
<feGaussianBlur stdDeviation="2"/>
<feComposite in2="hardAlpha" operator="out"/>
<feColorMatrix type="matrix" values="0 0 0 0 1 0 0 0 0 0.866267 0 0 0 0 0.164167 0 0 0 1 0"/>
<feBlend mode="normal" in2="BackgroundImageFix" result="effect1_dropShadow_299_75"/>
<feBlend mode="normal" in="SourceGraphic" in2="effect1_dropShadow_299_75" result="shape"/>
</filter>
<filter id="filter1_d_299_75" x="13.5475" y="52.0211" width="17.9335" height="63.2301" filterUnits="userSpaceOnUse" color-interpolation-filters="sRGB">
<feFlood flood-opacity="0" result="BackgroundImageFix"/>
<feColorMatrix in="SourceAlpha" type="matrix" values="0 0 0 0 0 0 0 0 0 0 0 0 0 0 0 0 0 0 127 0" result="hardAlpha"/>
<feOffset/>
<feGaussianBlur stdDeviation="2"/>
<feComposite in2="hardAlpha" operator="out"/>
<feColorMatrix type="matrix" values="0 0 0 0 1 0 0 0 0 0.866267 0 0 0 0 0.164167 0 0 0 1 0"/>
<feBlend mode="normal" in2="BackgroundImageFix" result="effect1_dropShadow_299_75"/>
<feBlend mode="normal" in="SourceGraphic" in2="effect1_dropShadow_299_75" result="shape"/>
</filter>
<filter id="filter2_d_299_75" x="8.68802" y="63.7406" width="20.3905" height="28.0518" filterUnits="userSpaceOnUse" color-interpolation-filters="sRGB">
<feFlood flood-opacity="0" result="BackgroundImageFix"/>
<feColorMatrix in="SourceAlpha" type="matrix" values="0 0 0 0 0 0 0 0 0 0 0 0 0 0 0 0 0 0 127 0" result="hardAlpha"/>
<feOffset/>
<feGaussianBlur stdDeviation="1.5"/>
<feComposite in2="hardAlpha" operator="out"/>
<feColorMatrix type="matrix" values="0 0 0 0 0.117647 0 0 0 0 0.611765 0 0 0 0 0.843137 0 0 0 1 0"/>
<feBlend mode="normal" in2="BackgroundImageFix" result="effect1_dropShadow_299_75"/>
<feBlend mode="normal" in="SourceGraphic" in2="effect1_dropShadow_299_75" result="shape"/>
</filter>
<filter id="filter3_d_299_75" x="117.583" y="104.364" width="22.2922" height="24.3807" filterUnits="userSpaceOnUse" color-interpolation-filters="sRGB">
<feFlood flood-opacity="0" result="BackgroundImageFix"/>
<feColorMatrix in="SourceAlpha" type="matrix" values="0 0 0 0 0 0 0 0 0 0 0 0 0 0 0 0 0 0 127 0" result="hardAlpha"/>
<feOffset/>
<feGaussianBlur stdDeviation="1.5"/>
<feComposite in2="hardAlpha" operator="out"/>
<feColorMatrix type="matrix" values="0 0 0 0 0.117647 0 0 0 0 0.611765 0 0 0 0 0.843137 0 0 0 1 0"/>
<feBlend mode="normal" in2="BackgroundImageFix" result="effect1_dropShadow_299_75"/>
<feBlend mode="normal" in="SourceGraphic" in2="effect1_dropShadow_299_75" result="shape"/>
</filter>
<linearGradient id="paint0_linear_299_75" x1="146.558" y1="13.2512" x2="13.2504" y2="146.559" gradientUnits="userSpaceOnUse">
<stop stop-color="#001F76"/>
<stop offset="1" stop-color="#00E3AE"/>
</linearGradient>
<linearGradient id="paint1_linear_299_75" x1="13.2505" y1="146.559" x2="146.558" y2="13.2511" gradientUnits="userSpaceOnUse">
<stop stop-color="#001F76"/>
<stop offset="1" stop-color="#00E3AE"/>
</linearGradient>
</defs>
</svg>
