<svg width="171" height="171" viewBox="0 0 171 171" fill="none" xmlns="http://www.w3.org/2000/svg">
<g filter="url(#filter0_d_519_417)">
<path d="M146.625 92.0419C147.671 82.2931 146.37 72.4355 142.831 63.2914C139.293 54.1474 133.619 45.9821 126.283 39.4766C118.948 32.9712 110.163 28.3142 100.661 25.8941C91.1598 23.4741 81.2174 23.3612 71.6634 25.5648" stroke="#FFDD2A" stroke-width="2" stroke-linecap="round"/>
</g>
<g filter="url(#filter1_d_519_417)">
<path d="M32.6096 116.879C37.3244 124.819 43.7669 131.595 51.4591 136.705C59.1512 141.815 67.8953 145.126 77.0424 146.394" stroke="#FFDD2A" stroke-width="2" stroke-linecap="round"/>
</g>
<path d="M74.3464 68.6238L65.6541 88.2762L56.9827 68.6238H49.781L65.5491 103.309H65.801L81.6321 68.6238H74.3464ZM85.0334 102.47H91.8362V68.6238H85.0334V102.47ZM97.7151 102.47H104.518V91.4676H109.599C116.15 91.4676 121.504 86.3445 121.504 80.0667C121.504 73.7679 116.15 68.6238 109.599 68.6238H97.7151V102.47ZM109.599 84.7488L104.518 84.7278V75.3636H109.599C112.412 75.3636 114.701 77.4422 114.701 80.0037C114.701 82.6282 112.412 84.7698 109.599 84.7488Z" fill="url(#paint0_linear_519_417)"/>
<path d="M38.9991 42.452C47.6246 33.1323 58.8593 26.6293 71.2369 23.7918C83.6145 20.9543 96.5601 21.9141 108.384 26.546C120.208 31.1778 130.361 39.2666 137.517 49.7565C144.674 60.2463 148.502 72.6501 148.502 85.3488" stroke="url(#paint1_linear_519_417)" stroke-width="7" stroke-linecap="round" stroke-linejoin="round"/>
<path d="M112.067 142.572C104.44 146.133 96.1786 148.134 87.7678 148.456C79.357 148.779 70.9666 147.416 63.0897 144.45C55.2128 141.483 48.0085 136.972 41.9 131.181C35.7916 125.39 30.9023 118.437 27.5196 110.73" stroke="url(#paint2_linear_519_417)" stroke-width="7" stroke-linecap="round"/>
<g opacity="0.8" filter="url(#filter2_d_519_417)">
<path d="M19.6796 78.9878L19.4355 78.8134C19.4116 78.8469 19.3948 78.8849 19.3862 78.9251L19.6796 78.9878ZM24.3241 93.9363L24.162 94.1887C24.2681 94.2569 24.4055 94.2514 24.5058 94.175C24.6061 94.0987 24.648 93.9677 24.6106 93.8473L24.3241 93.9363ZM17.4324 89.5104L17.139 89.4478C17.1129 89.5699 17.1652 89.6954 17.2703 89.7629L17.4324 89.5104ZM24.3241 72.4845H24.6241C24.6241 72.3541 24.5398 72.2386 24.4156 72.1988C24.2914 72.159 24.1558 72.204 24.08 72.3102L24.3241 72.4845ZM24.3241 77.0458L24.5866 77.191C24.6112 77.1465 24.6241 77.0966 24.6241 77.0458H24.3241ZM31.2228 89.5104L31.3849 89.7629C31.49 89.6954 31.5423 89.5699 31.5162 89.4478L31.2228 89.5104ZM24.3311 77.0458H24.0311C24.0311 77.0966 24.044 77.1465 24.0685 77.191L24.3311 77.0458ZM24.3311 72.4845L24.5752 72.3102C24.4994 72.204 24.3637 72.159 24.2395 72.1988C24.1153 72.2386 24.0311 72.3541 24.0311 72.4845H24.3311ZM28.9756 78.9878L29.2689 78.9251C29.2604 78.8849 29.2436 78.8469 29.2197 78.8134L28.9756 78.9878ZM24.3311 93.9363L24.0446 93.8473C24.0072 93.9677 24.0491 94.0987 24.1494 94.175C24.2497 94.2514 24.3871 94.2569 24.4932 94.1887L24.3311 93.9363ZM19.3931 79.0768L24.0376 94.0253L24.6106 93.8473L19.9661 78.8988L19.3931 79.0768ZM24.4862 93.6839L17.5945 89.258L17.2703 89.7629L24.162 94.1887L24.4862 93.6839ZM17.7258 89.5731L19.973 79.0504L19.3862 78.9251L17.139 89.4478L17.7258 89.5731ZM19.9238 79.1621L24.5682 72.6589L24.08 72.3102L19.4355 78.8134L19.9238 79.1621ZM24.0241 72.4845V77.0458H24.6241V72.4845H24.0241ZM24.0616 76.9006L17.1698 89.3653L17.6949 89.6556L24.5866 77.191L24.0616 76.9006ZM17.4324 89.8104H31.2228V89.2104H17.4324V89.8104ZM31.4854 89.3653L24.5936 76.9006L24.0685 77.191L30.9603 89.6556L31.4854 89.3653ZM24.6311 77.0458V72.4845H24.0311V77.0458H24.6311ZM24.0869 72.6589L28.7314 79.1621L29.2197 78.8134L24.5752 72.3102L24.0869 72.6589ZM28.6822 79.0504L30.9294 89.5731L31.5162 89.4478L29.2689 78.9251L28.6822 79.0504ZM31.0607 89.258L24.169 93.6839L24.4932 94.1887L31.3849 89.7629L31.0607 89.258ZM24.6176 94.0253L29.2621 79.0768L28.6891 78.8988L24.0446 93.8473L24.6176 94.0253Z" fill="url(#paint3_linear_519_417)"/>
</g>
<g opacity="0.8" filter="url(#filter3_d_519_417)">
<path d="M134.407 115.558L134.315 115.272C134.276 115.285 134.24 115.305 134.209 115.332L134.407 115.558ZM129.219 130.326L128.938 130.432C128.983 130.55 129.096 130.628 129.223 130.626C129.349 130.625 129.46 130.545 129.502 130.426L129.219 130.326ZM126.327 122.663L126.129 122.438C126.035 122.521 126.002 122.652 126.046 122.769L126.327 122.663ZM142.014 113.108L142.254 113.287C142.332 113.182 142.333 113.039 142.258 112.933C142.182 112.827 142.046 112.782 141.922 112.822L142.014 113.108ZM139.293 116.769L139.417 117.042C139.464 117.021 139.504 116.989 139.534 116.948L139.293 116.769ZM137.396 130.888L137.376 131.188C137.5 131.196 137.617 131.127 137.669 131.013L137.396 130.888ZM139.299 116.773L139.058 116.594C139.028 116.635 139.008 116.683 139.001 116.733L139.299 116.773ZM142.019 113.112L142.319 113.118C142.322 112.987 142.24 112.87 142.116 112.828C141.993 112.786 141.856 112.828 141.778 112.933L142.019 113.112ZM141.868 121.102L142.141 121.227C142.158 121.189 142.168 121.149 142.168 121.108L141.868 121.102ZM129.225 130.33L129.048 130.088C128.946 130.162 128.901 130.293 128.936 130.414C128.971 130.535 129.078 130.621 129.204 130.63L129.225 130.33ZM134.124 115.458L128.936 130.227L129.502 130.426L134.69 115.657L134.124 115.458ZM129.5 130.22L126.608 122.557L126.046 122.769L128.938 130.432L129.5 130.22ZM126.525 122.889L134.605 115.783L134.209 115.332L126.129 122.438L126.525 122.889ZM134.499 115.843L142.106 113.393L141.922 112.822L134.315 115.272L134.499 115.843ZM141.773 112.929L139.052 116.59L139.534 116.948L142.254 113.287L141.773 112.929ZM139.169 116.496L126.203 122.39L126.451 122.936L139.417 117.042L139.169 116.496ZM126.148 122.904L137.217 131.129L137.575 130.648L126.506 122.423L126.148 122.904ZM137.693 130.928L139.596 116.813L139.001 116.733L137.099 130.848L137.693 130.928ZM139.54 116.952L142.26 113.291L141.778 112.933L139.058 116.594L139.54 116.952ZM141.719 113.106L141.569 121.096L142.168 121.108L142.319 113.118L141.719 113.106ZM141.596 120.977L137.123 130.764L137.669 131.013L142.141 121.227L141.596 120.977ZM137.417 130.589L129.245 130.031L129.204 130.63L137.376 131.188L137.417 130.589ZM129.402 130.573L142.045 121.344L141.692 120.86L129.048 130.088L129.402 130.573Z" fill="url(#paint4_linear_519_417)"/>
</g>
<path d="M70.3467 70.578L70.5909 70.7524C70.6148 70.7189 70.6315 70.6809 70.6401 70.6407L70.3467 70.578ZM65.7023 55.6295L65.8644 55.3771C65.7583 55.3089 65.6209 55.3144 65.5206 55.3908C65.4202 55.4672 65.3784 55.5981 65.4158 55.7185L65.7023 55.6295ZM72.594 60.0554L72.8874 60.118C72.9135 59.9959 72.8612 59.8704 72.7561 59.8029L72.594 60.0554ZM65.7023 77.0813L65.4023 77.0813C65.4023 77.2117 65.4865 77.3272 65.6107 77.367C65.7349 77.4068 65.8706 77.3618 65.9464 77.2557L65.7023 77.0813ZM65.7023 72.52L65.4397 72.3749C65.4152 72.4193 65.4023 72.4693 65.4023 72.52L65.7023 72.52ZM58.8036 60.0554L58.6414 59.8029C58.5364 59.8704 58.4841 59.9959 58.5102 60.118L58.8036 60.0554ZM65.6953 72.52L65.9953 72.52C65.9953 72.4693 65.9824 72.4193 65.9578 72.3749L65.6953 72.52ZM65.6953 77.0813L65.4512 77.2557C65.5269 77.3618 65.6626 77.4068 65.7868 77.367C65.911 77.3272 65.9953 77.2117 65.9953 77.0813L65.6953 77.0813ZM61.0508 70.578L60.7574 70.6407C60.766 70.6809 60.7828 70.7189 60.8067 70.7524L61.0508 70.578ZM65.6953 55.6295L65.9818 55.7185C66.0192 55.5981 65.9773 55.4672 65.877 55.3908C65.7767 55.3144 65.6393 55.3089 65.5332 55.3771L65.6953 55.6295ZM70.6332 70.489L65.9888 55.5405L65.4158 55.7185L70.0603 70.667L70.6332 70.489ZM65.5402 55.8819L72.4319 60.3078L72.7561 59.8029L65.8644 55.3771L65.5402 55.8819ZM72.3006 59.9927L70.0534 70.5154L70.6401 70.6407L72.8874 60.118L72.3006 59.9927ZM70.1026 70.4037L65.4581 76.9069L65.9464 77.2557L70.5909 70.7524L70.1026 70.4037ZM66.0023 77.0813L66.0023 72.52L65.4023 72.52L65.4023 77.0813L66.0023 77.0813ZM65.9648 72.6652L72.8565 60.2005L72.3315 59.9102L65.4397 72.3749L65.9648 72.6652ZM72.594 59.7554L58.8036 59.7554L58.8036 60.3554L72.594 60.3554L72.594 59.7554ZM58.541 60.2005L65.4327 72.6652L65.9578 72.3749L59.0661 59.9102L58.541 60.2005ZM65.3953 72.52L65.3953 77.0813L65.9953 77.0813L65.9953 72.52L65.3953 72.52ZM65.9394 76.9069L61.2949 70.4037L60.8067 70.7524L65.4512 77.2557L65.9394 76.9069ZM61.3442 70.5154L59.0969 59.9927L58.5102 60.118L60.7574 70.6407L61.3442 70.5154ZM58.9657 60.3078L65.8574 55.8819L65.5332 55.3771L58.6414 59.8029L58.9657 60.3078ZM65.4088 55.5405L60.7643 70.489L61.3373 70.667L65.9818 55.7185L65.4088 55.5405Z" fill="url(#paint5_linear_519_417)"/>
<defs>
<filter id="filter0_d_519_417" x="66.6632" y="18.9916" width="85.3125" height="78.0504" filterUnits="userSpaceOnUse" color-interpolation-filters="sRGB">
<feFlood flood-opacity="0" result="BackgroundImageFix"/>
<feColorMatrix in="SourceAlpha" type="matrix" values="0 0 0 0 0 0 0 0 0 0 0 0 0 0 0 0 0 0 127 0" result="hardAlpha"/>
<feOffset/>
<feGaussianBlur stdDeviation="2"/>
<feComposite in2="hardAlpha" operator="out"/>
<feColorMatrix type="matrix" values="0 0 0 0 1 0 0 0 0 0.866267 0 0 0 0 0.164167 0 0 0 1 0"/>
<feBlend mode="normal" in2="BackgroundImageFix" result="effect1_dropShadow_519_417"/>
<feBlend mode="normal" in="SourceGraphic" in2="effect1_dropShadow_519_417" result="shape"/>
</filter>
<filter id="filter1_d_519_417" x="27.6095" y="111.879" width="54.433" height="39.515" filterUnits="userSpaceOnUse" color-interpolation-filters="sRGB">
<feFlood flood-opacity="0" result="BackgroundImageFix"/>
<feColorMatrix in="SourceAlpha" type="matrix" values="0 0 0 0 0 0 0 0 0 0 0 0 0 0 0 0 0 0 127 0" result="hardAlpha"/>
<feOffset/>
<feGaussianBlur stdDeviation="2"/>
<feComposite in2="hardAlpha" operator="out"/>
<feColorMatrix type="matrix" values="0 0 0 0 1 0 0 0 0 0.866267 0 0 0 0 0.164167 0 0 0 1 0"/>
<feBlend mode="normal" in2="BackgroundImageFix" result="effect1_dropShadow_519_417"/>
<feBlend mode="normal" in="SourceGraphic" in2="effect1_dropShadow_519_417" result="shape"/>
</filter>
<filter id="filter2_d_519_417" x="14.1323" y="69.1845" width="20.3905" height="28.0518" filterUnits="userSpaceOnUse" color-interpolation-filters="sRGB">
<feFlood flood-opacity="0" result="BackgroundImageFix"/>
<feColorMatrix in="SourceAlpha" type="matrix" values="0 0 0 0 0 0 0 0 0 0 0 0 0 0 0 0 0 0 127 0" result="hardAlpha"/>
<feOffset/>
<feGaussianBlur stdDeviation="1.5"/>
<feComposite in2="hardAlpha" operator="out"/>
<feColorMatrix type="matrix" values="0 0 0 0 0.117647 0 0 0 0 0.611765 0 0 0 0 0.843137 0 0 0 1 0"/>
<feBlend mode="normal" in2="BackgroundImageFix" result="effect1_dropShadow_519_417"/>
<feBlend mode="normal" in="SourceGraphic" in2="effect1_dropShadow_519_417" result="shape"/>
</filter>
<filter id="filter3_d_519_417" x="123.027" y="109.808" width="22.2921" height="24.3807" filterUnits="userSpaceOnUse" color-interpolation-filters="sRGB">
<feFlood flood-opacity="0" result="BackgroundImageFix"/>
<feColorMatrix in="SourceAlpha" type="matrix" values="0 0 0 0 0 0 0 0 0 0 0 0 0 0 0 0 0 0 127 0" result="hardAlpha"/>
<feOffset/>
<feGaussianBlur stdDeviation="1.5"/>
<feComposite in2="hardAlpha" operator="out"/>
<feColorMatrix type="matrix" values="0 0 0 0 0.117647 0 0 0 0 0.611765 0 0 0 0 0.843137 0 0 0 1 0"/>
<feBlend mode="normal" in2="BackgroundImageFix" result="effect1_dropShadow_519_417"/>
<feBlend mode="normal" in="SourceGraphic" in2="effect1_dropShadow_519_417" result="shape"/>
</filter>
<linearGradient id="paint0_linear_519_417" x1="124.421" y1="55.4695" x2="66.1865" y2="128.636" gradientUnits="userSpaceOnUse">
<stop stop-color="#001F76"/>
<stop offset="1" stop-color="#00E3AE"/>
</linearGradient>
<linearGradient id="paint1_linear_519_417" x1="152.002" y1="18.695" x2="18.6947" y2="152.003" gradientUnits="userSpaceOnUse">
<stop stop-color="#001F76"/>
<stop offset="1" stop-color="#00E3AE"/>
</linearGradient>
<linearGradient id="paint2_linear_519_417" x1="18.6949" y1="152.003" x2="152.002" y2="18.695" gradientUnits="userSpaceOnUse">
<stop stop-color="#001F76"/>
<stop offset="1" stop-color="#00E3AE"/>
</linearGradient>
<linearGradient id="paint3_linear_519_417" x1="31.2228" y1="72.4845" x2="11.7071" y2="85.0303" gradientUnits="userSpaceOnUse">
<stop stop-color="#001F76"/>
<stop offset="1" stop-color="#00E3AE"/>
</linearGradient>
<linearGradient id="paint4_linear_519_417" x1="147.551" y1="117.222" x2="124.404" y2="115.653" gradientUnits="userSpaceOnUse">
<stop stop-color="#001F76"/>
<stop offset="1" stop-color="#00E3AE"/>
</linearGradient>
<linearGradient id="paint5_linear_519_417" x1="58.8036" y1="77.0813" x2="78.3193" y2="64.5355" gradientUnits="userSpaceOnUse">
<stop stop-color="#001F76"/>
<stop offset="1" stop-color="#00E3AE"/>
</linearGradient>
</defs>
</svg>
