<svg width="630" height="630" viewBox="0 0 630 630" fill="none" xmlns="http://www.w3.org/2000/svg">
<circle cx="314.593" cy="314.509" r="222.332" transform="rotate(135 314.593 314.509)" fill="url(#paint0_linear_731_60)"/>
<path fill-rule="evenodd" clip-rule="evenodd" d="M518.631 402.632C567.3 289.898 515.365 159.056 402.632 110.387C289.898 61.7176 159.056 113.652 110.387 226.386C61.7176 339.119 113.652 469.962 226.386 518.631C339.119 567.3 469.962 515.365 518.631 402.632ZM314.509 108.894C200.951 108.894 108.894 200.951 108.894 314.509C108.894 428.067 200.951 520.124 314.509 520.124C428.067 520.124 520.124 428.067 520.124 314.509C520.124 200.951 428.067 108.894 314.509 108.894Z" fill="url(#paint1_linear_731_60)"/>
<g opacity="0.8">
<path d="M317.225 165L316.618 167.063L316.618 226.918L317.225 227.524L345.009 211.101L317.225 165Z" fill="white"/>
<path d="M317.225 165L289.44 211.101L317.225 227.524L317.225 198.472L317.225 165Z" fill="white"/>
<path d="M317.224 236.563L316.882 236.98L316.882 258.302L317.224 259.301L345.025 220.148L317.224 236.563Z" fill="white"/>
<path d="M317.225 259.301L317.225 236.563L289.44 220.148L317.225 259.301Z" fill="white"/>
<path d="M317.224 227.524L345.008 211.102L317.224 198.473L317.224 227.524Z" fill="white"/>
<path d="M289.44 211.1L317.224 227.523L317.224 198.471L289.44 211.1Z" fill="white"/>
</g>
<g opacity="0.8">
<path d="M186.489 237.491L187.972 239.048L239.808 268.975L240.637 268.753L240.306 236.479L186.489 237.491Z" fill="white"/>
<path d="M186.489 237.491L212.522 284.603L240.637 268.753L215.477 254.227L186.489 237.491Z" fill="white"/>
<path d="M248.465 273.273L248.655 273.777L267.12 284.438L268.156 284.641L248.149 240.989L248.465 273.273Z" fill="white"/>
<path d="M268.156 284.641L248.465 273.272L220.357 289.126L268.156 284.641Z" fill="white"/>
<path d="M240.637 268.753L240.306 236.48L215.478 254.227L240.637 268.753Z" fill="white"/>
<path d="M212.521 284.602L240.635 268.752L215.476 254.226L212.521 284.602Z" fill="white"/>
</g>
<g opacity="0.8">
<path d="M442.782 391.441L441.299 389.884L389.463 359.956L388.635 360.179L388.966 392.452L442.782 391.441Z" fill="white"/>
<path d="M442.782 391.441L416.75 344.329L388.635 360.179L413.795 374.705L442.782 391.441Z" fill="white"/>
<path d="M380.807 355.659L380.617 355.154L362.152 344.493L361.116 344.29L381.122 387.942L380.807 355.659Z" fill="white"/>
<path d="M361.115 344.29L380.807 355.659L408.915 339.805L361.115 344.29Z" fill="white"/>
<path d="M388.635 360.178L388.966 392.451L413.794 374.704L388.635 360.178Z" fill="white"/>
<path d="M416.751 344.329L388.636 360.179L413.796 374.705L416.751 344.329Z" fill="white"/>
</g>
<g opacity="0.8">
<path d="M183.9 386.957L185.99 386.451L237.826 356.523L238.047 355.695L209.932 339.844L183.9 386.957Z" fill="white"/>
<path d="M183.9 386.956L237.717 387.968L238.048 355.694L212.888 370.22L183.9 386.956Z" fill="white"/>
<path d="M245.876 351.175L246.408 351.263L264.873 340.602L265.567 339.807L217.76 335.307L245.876 351.175Z" fill="white"/>
<path d="M265.567 339.806L245.876 351.175L245.552 383.444L265.567 339.806Z" fill="white"/>
<path d="M238.048 355.694L209.934 339.844L212.889 370.22L238.048 355.694Z" fill="white"/>
<path d="M237.716 387.968L238.047 355.695L212.887 370.221L237.716 387.968Z" fill="white"/>
</g>
<g opacity="0.8">
<path d="M312.046 463.931L312.653 461.869L312.653 402.013L312.046 401.408L284.262 417.831L312.046 463.931Z" fill="white"/>
<path d="M312.046 463.931L339.831 417.831L312.046 401.407L312.046 430.459L312.046 463.931Z" fill="white"/>
<path d="M312.047 392.368L312.389 391.951L312.389 370.629L312.047 369.631L284.246 408.783L312.047 392.368Z" fill="white"/>
<path d="M312.046 369.63L312.046 392.368L339.831 408.783L312.046 369.63Z" fill="white"/>
<path d="M312.047 401.407L284.263 417.83L312.047 430.458L312.047 401.407Z" fill="white"/>
<path d="M339.831 417.832L312.047 401.409L312.047 430.46L339.831 417.832Z" fill="white"/>
</g>
<g opacity="0.8">
<path d="M445.371 241.974L443.281 242.48L391.445 272.407L391.223 273.236L419.338 289.086L445.371 241.974Z" fill="white"/>
<path d="M445.371 241.974L391.554 240.963L391.223 273.236L416.383 258.71L445.371 241.974Z" fill="white"/>
<path d="M383.395 277.755L382.863 277.667L364.398 288.328L363.704 289.124L411.511 293.624L383.395 277.755Z" fill="white"/>
<path d="M363.704 289.124L383.395 277.756L383.719 245.486L363.704 289.124Z" fill="white"/>
<path d="M391.223 273.236L419.337 289.086L416.382 258.71L391.223 273.236Z" fill="white"/>
<path d="M391.555 240.962L391.224 273.235L416.384 258.709L391.555 240.962Z" fill="white"/>
</g>
<defs>
<linearGradient id="paint0_linear_731_60" x1="536.925" y1="92.1768" x2="92.2607" y2="536.841" gradientUnits="userSpaceOnUse">
<stop stop-color="#001F76"/>
<stop offset="1" stop-color="#00E3AE"/>
</linearGradient>
<linearGradient id="paint1_linear_731_60" x1="314.509" y1="629.018" x2="314.509" y2="-5.49633e-05" gradientUnits="userSpaceOnUse">
<stop stop-color="#0F659E"/>
<stop offset="1" stop-color="#C3DCF2"/>
</linearGradient>
</defs>
</svg>
