<svg width="345" height="323" viewBox="0 0 345 323" fill="none" xmlns="http://www.w3.org/2000/svg">
<g filter="url(#filter0_f_258_2446)">
<path fill-rule="evenodd" clip-rule="evenodd" d="M180.627 17.438C184.527 10.0318 175.568 1.06447 168.229 4.92997C162.259 7.33295 160.744 16.0622 165.391 20.4787C169.776 25.0806 178.363 23.4752 180.627 17.438ZM98.9411 20.7027C99.3957 15.7947 93.7522 11.669 89.294 13.5227C83.0882 15.1927 82.3996 25.0648 88.4202 27.4202C92.9643 29.9524 99.4142 26.0307 98.9411 20.7027ZM250.965 27.574C243.998 26.7237 242.895 15.6595 249.603 13.4317C254.805 10.8689 259.578 15.6748 260.339 20.6559C259.248 24.9092 255.723 28.8036 250.965 27.574ZM124.197 58.5361C125.344 49.7915 114.708 42.6999 107.255 47.4617C100.275 51.067 99.3152 61.8234 105.649 66.512C112.2 72.4811 123.81 67.3657 124.197 58.5361ZM221.036 52.5147C224.361 43.8586 237.835 43.5967 241.62 52.0233C245.361 58.5808 240.759 66.7013 234.094 68.9308C225.265 70.5957 216.879 60.9549 221.036 52.5147ZM172.361 54.9467C165.36 55.4535 158.651 60.9975 158.724 68.4377C158.325 74.5174 162.625 79.4832 167.731 82.0154C168.245 82.0466 168.766 82.0883 169.29 82.1304C172.174 82.3617 175.17 82.602 177.765 81.1328C184.473 78.1363 187.769 69.1469 184.057 62.6182C182.065 57.8854 177.004 55.8871 172.361 54.9467ZM41.3338 79.2811C48.1424 75.0534 57.3282 82.7691 54.7506 90.2399C53.3313 96.7023 44.7314 99.3314 39.8152 95.2057C34.5674 91.3402 35.3991 82.0463 41.3338 79.2811ZM308.035 87.2977C308.723 79.9307 299.191 74.7336 293.414 79.264C287.486 82.9408 288.131 92.755 294.446 95.6223C300.181 99.0813 308.422 94.0152 308.035 87.2977ZM191.736 92.6405C201.268 89.1814 212.591 93.3207 218.024 101.905C225.191 112.4 221.377 128.382 210.255 134.404C198.731 141.526 181.903 135.489 177.647 122.49C172.815 110.852 179.854 96.2883 191.736 92.6405ZM165.692 103.891C160.589 92.975 146.371 88.7489 135.807 93.7862C124.547 98.8659 119.366 113.85 125.2 124.882C130.402 136.29 145.568 140.965 156.318 134.798C167.055 129.312 171.698 114.517 165.692 103.891ZM79.8045 113.124C80.6076 106.249 87.0289 101.774 93.5075 101.312C100.488 102.162 106.064 107.638 106.823 114.774C106.365 121.838 100.961 128.743 93.5496 128.7C85.3958 129.409 78.2472 121.216 79.8045 113.124ZM264.839 114.765C265.212 105.051 253.588 97.8867 245.217 102.808C236.23 107.089 235.555 121.246 244.214 126.273C252.549 132.311 265.414 125.057 264.839 114.765ZM113.047 139.082C122.838 136.361 134.032 141.023 138.834 150.113C144.093 159.262 141.943 171.972 133.774 178.683C123.297 188.526 103.974 184.574 98.3983 171.141C91.9905 158.827 99.7738 142.324 113.047 139.082ZM244.943 148.742C239.826 139.983 228.646 136.278 219.128 139.028C205.755 142.727 198.674 159.865 205.711 171.992C211.516 183.717 227.858 187.653 238.407 180.155C248.479 173.698 251.708 158.758 244.943 148.742ZM50.0771 150.459C58.5339 147.228 67.9083 156.654 64.4821 165.123C62.3894 172.839 51.6244 175.691 46.0634 170.002C39.5562 164.661 41.9655 152.775 50.0771 150.459ZM291.37 149.014C284.184 149.405 279.058 155.674 279.302 162.752C280.706 166.052 282.412 169.498 285.737 171.205C292.831 175.158 302.866 169.44 302.335 161.029C302.793 154.66 297.162 149.941 291.37 149.014ZM8.49554 154.615C13.5834 152.372 19.8768 156.826 18.7151 162.533C18.4423 168.996 8.99725 171.48 5.52732 166.081C2.46146 162.331 4.2966 156.549 8.49554 154.615ZM340.046 157.989C338.627 153.762 332.879 151.91 329.296 154.486C323.335 157.699 325.671 168.817 332.894 168.152C338.039 168.933 342.454 162.607 340.046 157.989ZM140.681 185.506C154.069 181.989 168.461 193.266 168.545 207.19C169.419 221.261 155.245 233.739 141.54 230.489C130.947 228.766 122.635 218.458 122.978 207.646C122.949 197.305 130.676 187.693 140.681 185.506ZM221.895 207.367C222.11 193.121 207.289 181.641 193.701 185.478C185.645 187.5 178.823 194.207 177.043 202.455C173.518 214.832 182.835 228.845 195.462 230.495C208.88 233.235 222.612 221.177 221.895 207.367ZM91.4747 194.048C100.878 192.428 109.693 203.024 105.88 212.043C103.098 221.653 89.2523 224.26 83.1307 216.41C75.9501 208.871 81.3107 195.089 91.4747 194.048ZM264.996 207.442C265.64 198.25 255.348 190.924 246.964 194.471C236.83 197.724 235.14 213.329 244.427 218.632C252.626 224.538 265.332 217.56 264.996 207.442ZM290.426 238.504C287.143 232.323 293.107 224.129 299.902 225.274C303.097 225.219 305.385 227.618 307.453 229.788C307.575 229.915 307.695 230.041 307.815 230.166L307.842 230.385C307.858 230.515 307.874 230.646 307.89 230.778L307.892 230.793C308.332 234.318 308.835 238.359 305.995 241.023C301.907 246.249 292.647 244.758 290.426 238.504ZM55.3681 236.594C56.7958 229.094 47.6571 222.725 41.3065 226.996C35.2573 230.109 35.0418 239.837 40.889 243.254C46.3371 247.017 54.6087 243.226 55.3681 236.594ZM166.77 240.875C175.083 237.169 185.675 244.48 184.887 253.73C185.503 263.951 172.403 271.029 164.275 264.891C155.245 259.621 156.751 244.116 166.77 240.875ZM124.599 265.31C125.243 257.305 115.741 250.806 108.66 254.569C103.671 256.452 101.638 262.011 101.55 267.002C103.255 271.582 106.724 276.398 112.042 276.514C118.464 277.485 124.814 271.883 124.599 265.31ZM226.367 254.688C233.649 250.142 243.998 256.671 243.309 265.232C243.496 274.179 231.8 279.91 225.02 274.032C218.456 269.425 219.257 258.351 226.367 254.688ZM252.67 293.759C247.41 294.889 243.597 300.853 246.836 305.803C250.161 311.551 259.865 309.495 260.482 302.793C261.37 297.841 256.899 294.629 252.67 293.759ZM84.3494 301.505C85.6391 297.582 88.7639 293.682 93.3366 294.702C100.002 295.18 101.98 305.328 96.1465 308.455C90.9004 312.028 84.8141 307.136 84.3494 301.505ZM176.357 300.461C171.455 297.378 164.016 300.201 162.74 306.005C160.408 311.869 166.008 318.957 172.216 318.222C175.556 318.309 178.135 315.906 180.142 313.503C180.533 311.882 180.93 310.26 181.374 308.639L181.347 308.536C180.522 305.447 179.561 301.85 176.357 300.461Z" fill="#F8F8F8"/>
</g>
<defs>
<filter id="filter0_f_258_2446" x="0" y="0" width="344.721" height="322.275" filterUnits="userSpaceOnUse" color-interpolation-filters="sRGB">
<feFlood flood-opacity="0" result="BackgroundImageFix"/>
<feBlend mode="normal" in="SourceGraphic" in2="BackgroundImageFix" result="shape"/>
<feGaussianBlur stdDeviation="2" result="effect1_foregroundBlur_258_2446"/>
</filter>
</defs>
</svg>
