<svg width="504" height="504" viewBox="0 0 504 504" fill="none" xmlns="http://www.w3.org/2000/svg">
<g opacity="0.6" filter="url(#filter0_d_258_2478)">
<circle cx="252.132" cy="252.131" r="183.884" transform="rotate(150 252.132 252.131)" fill="url(#paint0_linear_258_2478)"/>
</g>
<ellipse opacity="0.6" cx="252.508" cy="251.582" rx="182.212" ry="180.54" transform="rotate(-30 252.508 251.582)" fill="url(#paint1_linear_258_2478)"/>
<g opacity="0.6" filter="url(#filter1_d_258_2478)">
<circle cx="252.132" cy="252.131" r="40.12" transform="rotate(150 252.132 252.131)" fill="url(#paint2_linear_258_2478)"/>
</g>
<circle opacity="0.6" cx="252.132" cy="252.131" r="33.4334" transform="rotate(-30 252.132 252.131)" fill="url(#paint3_linear_258_2478)"/>
<path d="M66.5635 359.269L78.3936 362.439L81.5635 350.609L69.7333 347.439L66.5635 359.269ZM437.7 144.994L425.87 141.824L422.7 153.654L434.53 156.824L437.7 144.994ZM74.8135 356.238L430.95 150.623L429.45 148.025L73.3135 353.64L74.8135 356.238Z" fill="url(#paint4_linear_258_2478)"/>
<path d="M437.7 359.27L434.53 347.439L422.7 350.609L425.87 362.439L437.7 359.27ZM66.5638 144.994L69.7337 156.824L81.5638 153.654L78.3939 141.824L66.5638 144.994ZM430.95 353.64L74.8138 148.025L73.3138 150.623L429.45 356.238L430.95 353.64Z" fill="url(#paint5_linear_258_2478)"/>
<path d="M252.132 37.8559L243.471 46.5161L252.132 55.1764L260.792 46.5161L252.132 37.8559ZM252.132 466.407L260.792 457.747L252.132 449.086L243.471 457.747L252.132 466.407ZM250.632 46.5161L250.632 457.747L253.632 457.747L253.632 46.5161L250.632 46.5161Z" fill="url(#paint6_linear_258_2478)"/>
<path d="M317.513 360.808L314.806 366.761C313.65 365.771 311.83 365.623 310.342 366.482C308.257 367.686 307.614 370.425 308.864 372.588L311.047 376.37L322.631 369.672L321.286 367.343L315.808 370.505L319.157 363.655L317.513 360.808ZM312.01 372.708L311.146 371.213C310.694 370.429 310.916 369.352 311.742 368.875C312.569 368.398 313.616 368.733 314.065 369.528L314.921 371.027L312.01 372.708ZM303.545 358.08L301.252 359.404L305.286 366.392L316.874 359.701L312.84 352.714L310.525 354.05L313.215 358.709L310.821 360.091L308.513 356.094L306.191 357.434L308.499 361.431L306.234 362.739L303.545 358.08ZM310.311 348.001L310.236 347.872L302.283 348.639L306.899 342.092L306.82 341.956L292.91 344.955L294.362 347.471L301.225 345.877L296.862 351.702L296.887 351.745L304.125 350.883L299.309 356.04L300.758 358.549L310.311 348.001ZM300.584 331.486L299.127 328.962L290.451 341.361L290.493 341.433L305.564 340.112L304.112 337.596L302.067 337.789L299.39 333.153L300.584 331.486ZM299.56 338.029L295.644 338.402L297.929 335.204L299.56 338.029ZM293.333 318.927L290.626 324.88C289.47 323.889 287.65 323.742 286.162 324.601C284.077 325.805 283.434 328.543 284.683 330.707L286.867 334.488L298.451 327.791L297.106 325.462L291.628 328.624L294.977 321.774L293.333 318.927ZM287.829 330.827L286.966 329.332C286.514 328.548 286.735 327.471 287.562 326.994C288.389 326.517 289.435 326.852 289.885 327.647L290.741 329.146L287.829 330.827ZM279.159 321.139L281.113 324.506L292.694 317.82L290.747 314.448C288.585 310.703 285.08 309.679 281.486 311.754C277.87 313.842 276.99 317.398 279.159 321.139ZM288.417 315.775L289.031 316.839L282.073 320.856L281.471 319.814C280.147 317.521 280.665 315.362 282.836 314.109C284.992 312.864 287.102 313.496 288.417 315.775Z" fill="#F8F8F8"/>
<path d="M183.413 348.894L189.905 352.642L179.263 355.652L179.196 355.767L191.015 362.59L192.359 360.261L185.868 356.513L196.533 353.497L196.595 353.389L184.762 346.558L183.413 348.894ZM200.947 345.867C202.865 342.546 201.731 338.268 198.431 336.363C195.103 334.441 190.817 335.59 188.903 338.904C186.99 342.218 188.143 346.497 191.471 348.418C194.771 350.323 199.038 349.174 200.947 345.867ZM198.59 344.506C197.423 346.526 194.827 347.222 192.814 346.059C190.787 344.889 190.084 342.288 191.25 340.268C192.42 338.241 195.028 337.542 197.056 338.713C199.068 339.875 199.76 342.479 198.59 344.506ZM195.445 328.121L193.506 331.497L205.087 338.183L207.033 334.812C209.196 331.066 208.33 327.519 204.736 325.443C201.12 323.356 197.6 324.372 195.445 328.121ZM204.72 333.457L204.105 334.521L197.147 330.503L197.748 329.461C199.072 327.167 201.2 326.537 203.371 327.79C205.528 329.035 206.035 331.178 204.72 333.457ZM206.126 314.917L203.833 313.593L199.799 320.58L211.387 327.271L215.421 320.283L213.106 318.947L210.417 323.605L208.023 322.223L210.331 318.226L208.009 316.886L205.701 320.882L203.437 319.575L206.126 314.917Z" fill="#F8F8F8"/>
<path d="M130.371 241.034L121.091 241.034L121.091 243.698L124.386 243.698L124.386 254.415L127.084 254.415L127.084 243.698L130.371 243.698L130.371 241.034ZM137.585 254.672C141.42 254.672 144.557 251.551 144.557 247.741C144.557 243.898 141.42 240.76 137.593 240.76C133.766 240.76 130.637 243.898 130.637 247.741C130.637 251.551 133.766 254.672 137.585 254.672ZM137.585 251.949C135.252 251.949 133.351 250.049 133.351 247.724C133.351 245.384 135.252 243.474 137.585 243.474C139.925 243.474 141.835 245.384 141.835 247.724C141.835 250.049 139.925 251.949 137.585 251.949ZM156.328 254.415L151.563 247.583L155.855 241.034L152.75 241.034L148.99 246.82L148.99 241.034L146.309 241.034L146.309 254.415L148.99 254.415L148.99 248.554L153.057 254.415L156.328 254.415ZM165.683 243.682L165.683 241.034L157.614 241.034L157.614 254.415L165.683 254.415L165.683 251.742L160.304 251.742L160.304 248.978L164.919 248.978L164.919 246.297L160.304 246.297L160.304 243.682L165.683 243.682ZM175.718 241.001L175.718 248.496L167.791 240.785L167.658 240.785L167.658 254.431L170.348 254.431L170.348 246.936L178.292 254.664L178.416 254.664L178.416 241.001L175.718 241.001Z" fill="#F8F8F8"/>
<path d="M193.142 154.525L194.599 157.048L203.275 144.649L203.233 144.577L188.162 145.898L189.614 148.415L191.659 148.221L194.336 152.858L193.142 154.525ZM194.166 147.981L198.082 147.609L195.797 150.807L194.166 147.981ZM209.561 156.202L201.114 157.111L206.129 150.257L204.705 147.791L195.947 160.047L195.996 160.133L211.001 158.697L209.561 156.202ZM202.912 171.447L204.369 173.97L213.045 161.571L213.003 161.5L197.932 162.821L199.384 165.337L201.429 165.143L204.106 169.78L202.912 171.447ZM203.936 164.904L207.852 164.531L205.567 167.729L203.936 164.904ZM204.547 174.279L206.091 176.954L211.246 176.901L208.627 181.346L210.171 184.02L214.157 177.012L221.635 177.114L220.091 174.44L215.441 174.488L217.804 170.479L216.26 167.805L212.598 174.328L204.547 174.279Z" fill="#F8F8F8"/>
<path d="M319.092 158.348L321.031 154.972L309.45 148.286L307.503 151.657C305.341 155.402 306.207 158.95 309.801 161.025C313.417 163.113 316.936 162.097 319.092 158.348ZM309.817 153.012L310.431 151.948L317.39 155.966L316.788 157.008C315.464 159.301 313.336 159.932 311.165 158.679C309.009 157.434 308.501 155.291 309.817 153.012ZM308.41 171.552L310.704 172.876L314.738 165.888L303.15 159.198L299.116 166.185L301.43 167.522L304.12 162.864L306.514 164.246L304.206 168.243L306.528 169.583L308.836 165.586L311.1 166.894L308.41 171.552ZM303.389 180.25L305.71 181.591L309.745 174.603L298.113 167.888L296.769 170.217L301.42 172.902L299.112 176.899L301.434 178.24L303.742 174.243L306.078 175.592L303.389 180.25ZM293.338 176.192L291.993 178.521L303.582 185.212L304.926 182.883L293.338 176.192Z" fill="#F8F8F8"/>
<path d="M401.908 249.847L399.218 249.847L399.218 254.197L397.21 254.197C394.62 254.197 392.503 256.222 392.503 258.704C392.503 261.195 394.62 263.228 397.21 263.228L401.908 263.228L401.908 249.847ZM397.21 256.853L399.218 256.862L399.218 260.564L397.21 260.564C396.097 260.564 395.193 259.742 395.193 258.729C395.193 257.692 396.097 256.845 397.21 256.853ZM380.741 249.847L384.543 255.168C383.107 255.675 382.069 257.177 382.069 258.895C382.069 261.302 384.119 263.228 386.618 263.228L390.984 263.228L390.976 249.847L388.286 249.847L388.286 256.173L384.028 249.847L380.741 249.847ZM388.295 260.564L386.568 260.564C385.663 260.564 384.841 259.833 384.841 258.879C384.841 257.924 385.655 257.185 386.568 257.194L388.295 257.202L388.295 260.564ZM373.096 249.59C369.261 249.59 366.123 252.711 366.123 256.521C366.123 260.365 369.261 263.502 373.088 263.502C376.914 263.502 380.044 260.365 380.044 256.521C380.044 252.711 376.914 249.59 373.096 249.59ZM373.096 252.313C375.428 252.313 377.329 254.214 377.329 256.538C377.329 258.879 375.428 260.788 373.096 260.788C370.755 260.788 368.846 258.879 368.846 256.538C368.846 254.214 370.755 252.313 373.096 252.313ZM356.569 263.228L365.849 263.228L365.849 260.564L362.554 260.564L362.554 249.847L359.856 249.847L359.856 260.564L356.569 260.564L356.569 263.228ZM349.356 249.59C345.521 249.59 342.383 252.711 342.383 256.521C342.383 260.365 345.521 263.502 349.347 263.502C353.174 263.502 356.303 260.365 356.303 256.521C356.303 252.711 353.174 249.59 349.356 249.59ZM349.356 252.313C351.688 252.313 353.589 254.214 353.589 256.538C353.589 258.879 351.688 260.788 349.356 260.788C347.015 260.788 345.106 258.879 345.106 256.538C345.106 254.214 347.015 252.313 349.356 252.313ZM334.215 249.59C332.19 249.59 330.754 250.47 329.575 251.64L331.119 253.815C332.007 252.944 333.069 252.288 334.298 252.288C336.365 252.288 338.49 254.131 338.49 256.513C338.49 258.854 336.44 260.763 334.29 260.763C333.136 260.763 332.04 260.215 331.127 259.319L329.575 261.435C330.978 262.788 332.522 263.477 334.265 263.502C338.033 263.502 341.213 260.306 341.213 256.53C341.213 252.769 338.075 249.59 334.215 249.59ZM322.278 249.59C318.443 249.59 315.306 252.711 315.306 256.521C315.306 260.365 318.443 263.502 322.27 263.502C326.097 263.502 329.226 260.365 329.226 256.521C329.226 252.711 326.097 249.59 322.278 249.59ZM322.278 252.313C324.611 252.313 326.512 254.214 326.512 256.538C326.512 258.879 324.611 260.788 322.278 260.788C319.938 260.788 318.028 258.879 318.028 256.538C318.028 254.214 319.938 252.313 322.278 252.313ZM310.865 252.52L310.865 263.228L313.554 263.228L313.554 249.847L305.486 249.847L305.486 252.52L310.865 252.52Z" fill="#F8F8F8"/>
<defs>
<filter id="filter0_d_258_2478" x="57.2173" y="57.217" width="389.829" height="389.829" filterUnits="userSpaceOnUse" color-interpolation-filters="sRGB">
<feFlood flood-opacity="0" result="BackgroundImageFix"/>
<feColorMatrix in="SourceAlpha" type="matrix" values="0 0 0 0 0 0 0 0 0 0 0 0 0 0 0 0 0 0 127 0" result="hardAlpha"/>
<feOffset/>
<feGaussianBlur stdDeviation="5.5"/>
<feComposite in2="hardAlpha" operator="out"/>
<feColorMatrix type="matrix" values="0 0 0 0 0 0 0 0 0 0 0 0 0 0 0 0 0 0 1 0"/>
<feBlend mode="normal" in2="BackgroundImageFix" result="effect1_dropShadow_258_2478"/>
<feBlend mode="normal" in="SourceGraphic" in2="effect1_dropShadow_258_2478" result="shape"/>
</filter>
<filter id="filter1_d_258_2478" x="201.005" y="201.004" width="102.253" height="102.254" filterUnits="userSpaceOnUse" color-interpolation-filters="sRGB">
<feFlood flood-opacity="0" result="BackgroundImageFix"/>
<feColorMatrix in="SourceAlpha" type="matrix" values="0 0 0 0 0 0 0 0 0 0 0 0 0 0 0 0 0 0 127 0" result="hardAlpha"/>
<feOffset/>
<feGaussianBlur stdDeviation="5.5"/>
<feComposite in2="hardAlpha" operator="out"/>
<feColorMatrix type="matrix" values="0 0 0 0 0 0 0 0 0 0 0 0 0 0 0 0 0 0 0.5 0"/>
<feBlend mode="normal" in2="BackgroundImageFix" result="effect1_dropShadow_258_2478"/>
<feBlend mode="normal" in="SourceGraphic" in2="effect1_dropShadow_258_2478" result="shape"/>
</filter>
<linearGradient id="paint0_linear_258_2478" x1="436.015" y1="68.2478" x2="68.248" y2="436.015" gradientUnits="userSpaceOnUse">
<stop stop-color="white"/>
<stop offset="1" stop-color="#D8E8F7"/>
</linearGradient>
<linearGradient id="paint1_linear_258_2478" x1="434.72" y1="71.0422" x2="73.6545" y2="435.451" gradientUnits="userSpaceOnUse">
<stop stop-color="#001F76"/>
<stop offset="1" stop-color="#00E3AE"/>
</linearGradient>
<linearGradient id="paint2_linear_258_2478" x1="292.252" y1="212.011" x2="212.012" y2="292.251" gradientUnits="userSpaceOnUse">
<stop stop-color="#001F76"/>
<stop offset="1" stop-color="#00E3AE"/>
</linearGradient>
<linearGradient id="paint3_linear_258_2478" x1="285.565" y1="218.698" x2="218.698" y2="285.565" gradientUnits="userSpaceOnUse">
<stop stop-color="#001F76"/>
<stop offset="1" stop-color="#00E3AE"/>
</linearGradient>
<linearGradient id="paint4_linear_258_2478" x1="105.793" y1="350.908" x2="104.819" y2="349.446" gradientUnits="userSpaceOnUse">
<stop stop-color="#001F76"/>
<stop offset="1" stop-color="#00E3AE"/>
</linearGradient>
<linearGradient id="paint5_linear_258_2478" x1="410.844" y1="329.476" x2="410.065" y2="331.05" gradientUnits="userSpaceOnUse">
<stop stop-color="#001F76"/>
<stop offset="1" stop-color="#00E3AE"/>
</linearGradient>
<linearGradient id="paint6_linear_258_2478" x1="239.757" y1="76.0103" x2="241.511" y2="75.8979" gradientUnits="userSpaceOnUse">
<stop stop-color="#001F76"/>
<stop offset="1" stop-color="#00E3AE"/>
</linearGradient>
</defs>
</svg>
