<svg width="139" height="135" viewBox="0 0 139 135" fill="none" xmlns="http://www.w3.org/2000/svg">
<path d="M60.3464 50.6238L51.6541 70.2762L42.9827 50.6238H35.781L51.5491 85.3094H51.801L67.6321 50.6238H60.3464ZM71.0334 84.4695H77.8362V50.6238H71.0334V84.4695ZM83.7151 84.4695H90.5178V73.4676H95.5989C102.15 73.4676 107.504 68.3445 107.504 62.0667C107.504 55.7679 102.15 50.6238 95.5989 50.6238H83.7151V84.4695ZM95.5989 66.7488L90.5178 66.7278V57.3636H95.5989C98.4124 57.3636 100.701 59.4422 100.701 62.0037C100.701 64.6282 98.4124 66.7698 95.5989 66.7488Z" fill="url(#paint0_linear_258_2804)"/>
<path d="M24.9992 24.452C33.6247 15.1323 44.8594 8.62929 57.237 5.7918C69.6146 2.9543 82.5602 3.91412 94.384 8.54598C106.208 13.1778 116.361 21.2666 123.517 31.7565C130.674 42.2463 134.502 54.6501 134.502 67.3488" stroke="url(#paint1_linear_258_2804)" stroke-width="7" stroke-linecap="round" stroke-linejoin="round"/>
<path d="M98.0668 124.572C90.4401 128.133 82.1786 130.134 73.7678 130.456C65.357 130.779 56.9666 129.416 49.0897 126.45C41.2128 123.483 34.0085 118.972 27.9 113.181C21.7916 107.39 16.9023 100.437 13.5196 92.7298" stroke="url(#paint2_linear_258_2804)" stroke-width="7" stroke-linecap="round"/>
<g opacity="0.8" filter="url(#filter0_d_258_2804)">
<path d="M5.67962 60.9877L5.43549 60.8134C5.41159 60.8469 5.39483 60.8849 5.38624 60.9251L5.67962 60.9877ZM10.3241 75.9363L10.162 76.1887C10.2681 76.2568 10.4055 76.2514 10.5058 76.175C10.6061 76.0986 10.648 75.9677 10.6106 75.8473L10.3241 75.9363ZM3.43237 71.5104L3.13899 71.4477C3.11291 71.5699 3.1652 71.6954 3.27026 71.7628L3.43237 71.5104ZM10.3241 54.4845H10.6241C10.6241 54.3541 10.5398 54.2386 10.4156 54.1988C10.2914 54.159 10.1558 54.204 10.08 54.3101L10.3241 54.4845ZM10.3241 59.0457L10.5866 59.1909C10.6112 59.1465 10.6241 59.0965 10.6241 59.0457H10.3241ZM17.2228 71.5104L17.3849 71.7628C17.49 71.6954 17.5423 71.5699 17.5162 71.4477L17.2228 71.5104ZM10.3311 59.0457H10.0311C10.0311 59.0965 10.044 59.1465 10.0685 59.1909L10.3311 59.0457ZM10.3311 54.4845L10.5752 54.3101C10.4994 54.204 10.3637 54.159 10.2395 54.1988C10.1153 54.2386 10.0311 54.3541 10.0311 54.4845H10.3311ZM14.9756 60.9877L15.2689 60.9251C15.2604 60.8849 15.2436 60.8469 15.2197 60.8134L14.9756 60.9877ZM10.3311 75.9363L10.0446 75.8473C10.0072 75.9677 10.0491 76.0986 10.1494 76.175C10.2497 76.2514 10.3871 76.2568 10.4932 76.1887L10.3311 75.9363ZM5.39313 61.0768L10.0376 76.0253L10.6106 75.8473L5.96611 60.8987L5.39313 61.0768ZM10.4862 75.6838L3.59448 71.258L3.27026 71.7628L10.162 76.1887L10.4862 75.6838ZM3.72576 71.5731L5.97301 61.0504L5.38624 60.9251L3.13899 71.4477L3.72576 71.5731ZM5.92376 61.1621L10.5682 54.6588L10.08 54.3101L5.43549 60.8134L5.92376 61.1621ZM10.0241 54.4845V59.0457H10.6241V54.4845H10.0241ZM10.0616 58.9006L3.16983 71.3652L3.69492 71.6556L10.5866 59.1909L10.0616 58.9006ZM3.43237 71.8104H17.2228V71.2104H3.43237V71.8104ZM17.4854 71.3652L10.5936 58.9006L10.0685 59.1909L16.9603 71.6556L17.4854 71.3652ZM10.6311 59.0457V54.4845H10.0311V59.0457H10.6311ZM10.0869 54.6588L14.7314 61.1621L15.2197 60.8134L10.5752 54.3101L10.0869 54.6588ZM14.6822 61.0504L16.9294 71.5731L17.5162 71.4477L15.2689 60.9251L14.6822 61.0504ZM17.0607 71.258L10.169 75.6838L10.4932 76.1887L17.3849 71.7628L17.0607 71.258ZM10.6176 76.0253L15.2621 61.0768L14.6891 60.8987L10.0446 75.8473L10.6176 76.0253Z" fill="url(#paint3_linear_258_2804)"/>
</g>
<g opacity="0.8" filter="url(#filter1_d_258_2804)">
<path d="M120.407 97.5575L120.315 97.2719C120.276 97.2845 120.24 97.305 120.209 97.3322L120.407 97.5575ZM115.219 112.326L114.939 112.432C114.983 112.55 115.097 112.628 115.223 112.626C115.349 112.625 115.461 112.545 115.502 112.426L115.219 112.326ZM112.327 104.663L112.129 104.438C112.035 104.52 112.003 104.652 112.047 104.769L112.327 104.663ZM128.014 95.1077L128.255 95.2866C128.332 95.1819 128.334 95.039 128.258 94.933C128.182 94.8269 128.046 94.7821 127.922 94.8221L128.014 95.1077ZM125.293 98.7688L125.418 99.0419C125.464 99.0209 125.504 98.9885 125.534 98.9478L125.293 98.7688ZM123.396 112.888L123.376 113.188C123.501 113.196 123.617 113.127 123.669 113.013L123.396 112.888ZM125.299 98.773L125.058 98.5941C125.028 98.6348 125.008 98.6826 125.002 98.7329L125.299 98.773ZM128.02 95.1118L128.319 95.1175C128.322 94.9871 128.24 94.87 128.116 94.8279C127.993 94.7858 127.856 94.8282 127.779 94.9329L128.02 95.1118ZM127.869 103.102L128.142 103.227C128.159 103.189 128.168 103.149 128.169 103.108L127.869 103.102ZM115.225 112.33L115.048 112.088C114.946 112.162 114.902 112.292 114.937 112.414C114.972 112.535 115.079 112.621 115.205 112.63L115.225 112.33ZM120.124 97.458L114.936 112.227L115.502 112.426L120.69 97.6569L120.124 97.458ZM115.5 112.22L112.608 104.557L112.047 104.769L114.939 112.432L115.5 112.22ZM112.525 104.889L120.605 97.7827L120.209 97.3322L112.129 104.438L112.525 104.889ZM120.499 97.843L128.106 95.3932L127.922 94.8221L120.315 97.2719L120.499 97.843ZM127.773 94.9287L125.053 98.5899L125.534 98.9478L128.255 95.2866L127.773 94.9287ZM125.169 98.4957L112.203 104.39L112.452 104.936L125.418 99.0419L125.169 98.4957ZM112.148 104.904L123.217 113.129L123.575 112.648L112.506 104.422L112.148 104.904ZM123.694 112.928L125.596 98.8131L125.002 98.7329L123.099 112.848L123.694 112.928ZM125.54 98.9519L128.26 95.2908L127.779 94.9329L125.058 98.5941L125.54 98.9519ZM127.72 95.1062L127.569 103.096L128.169 103.108L128.319 95.1175L127.72 95.1062ZM127.596 102.977L123.124 112.764L123.669 113.013L128.142 103.227L127.596 102.977ZM123.417 112.589L115.245 112.031L115.205 112.63L123.376 113.188L123.417 112.589ZM115.402 112.573L128.046 103.344L127.692 102.86L115.048 112.088L115.402 112.573Z" fill="url(#paint4_linear_258_2804)"/>
</g>
<path d="M56.3467 52.578L56.5909 52.7523C56.6148 52.7189 56.6315 52.6809 56.6401 52.6406L56.3467 52.578ZM51.7023 37.6295L51.8644 37.377C51.7583 37.3089 51.6209 37.3144 51.5206 37.3907C51.4202 37.4671 51.3784 37.5981 51.4158 37.7185L51.7023 37.6295ZM58.594 42.0553L58.8874 42.118C58.9135 41.9959 58.8612 41.8704 58.7561 41.8029L58.594 42.0553ZM51.7023 59.0813L51.4023 59.0813C51.4023 59.2117 51.4865 59.3271 51.6107 59.3669C51.7349 59.4067 51.8706 59.3617 51.9464 59.2556L51.7023 59.0813ZM51.7023 54.52L51.4397 54.3748C51.4152 54.4193 51.4023 54.4692 51.4023 54.52L51.7023 54.52ZM44.8036 42.0553L44.6414 41.8029C44.5364 41.8704 44.4841 41.9959 44.5102 42.118L44.8036 42.0553ZM51.6953 54.52L51.9953 54.52C51.9953 54.4692 51.9824 54.4193 51.9578 54.3748L51.6953 54.52ZM51.6953 59.0813L51.4512 59.2556C51.5269 59.3617 51.6626 59.4067 51.7868 59.3669C51.911 59.3271 51.9953 59.2117 51.9953 59.0813L51.6953 59.0813ZM47.0508 52.578L46.7574 52.6406C46.766 52.6809 46.7828 52.7189 46.8067 52.7523L47.0508 52.578ZM51.6953 37.6295L51.9818 37.7185C52.0192 37.5981 51.9773 37.4671 51.877 37.3907C51.7767 37.3144 51.6393 37.3089 51.5332 37.377L51.6953 37.6295ZM56.6332 52.489L51.9888 37.5404L51.4158 37.7185L56.0603 52.667L56.6332 52.489ZM51.5402 37.8819L58.4319 42.3078L58.7561 41.8029L51.8644 37.377L51.5402 37.8819ZM58.3006 41.9927L56.0534 52.5153L56.6401 52.6406L58.8874 42.118L58.3006 41.9927ZM56.1026 52.4036L51.4581 58.9069L51.9464 59.2556L56.5909 52.7523L56.1026 52.4036ZM52.0023 59.0813L52.0023 54.52L51.4023 54.52L51.4023 59.0813L52.0023 59.0813ZM51.9648 54.6651L58.8565 42.2005L58.3315 41.9102L51.4397 54.3748L51.9648 54.6651ZM58.594 41.7553L44.8036 41.7553L44.8036 42.3553L58.594 42.3553L58.594 41.7553ZM44.541 42.2005L51.4327 54.6651L51.9578 54.3748L45.0661 41.9102L44.541 42.2005ZM51.3953 54.52L51.3953 59.0813L51.9953 59.0813L51.9953 54.52L51.3953 54.52ZM51.9394 58.9069L47.2949 52.4036L46.8067 52.7523L51.4512 59.2556L51.9394 58.9069ZM47.3442 52.5153L45.0969 41.9927L44.5102 42.118L46.7574 52.6406L47.3442 52.5153ZM44.9657 42.3078L51.8574 37.8819L51.5332 37.377L44.6414 41.8029L44.9657 42.3078ZM51.4088 37.5404L46.7643 52.489L47.3373 52.667L51.9818 37.7185L51.4088 37.5404Z" fill="url(#paint5_linear_258_2804)"/>
<defs>
<filter id="filter0_d_258_2804" x="0.132324" y="51.1845" width="20.3906" height="28.0518" filterUnits="userSpaceOnUse" color-interpolation-filters="sRGB">
<feFlood flood-opacity="0" result="BackgroundImageFix"/>
<feColorMatrix in="SourceAlpha" type="matrix" values="0 0 0 0 0 0 0 0 0 0 0 0 0 0 0 0 0 0 127 0" result="hardAlpha"/>
<feOffset/>
<feGaussianBlur stdDeviation="1.5"/>
<feComposite in2="hardAlpha" operator="out"/>
<feColorMatrix type="matrix" values="0 0 0 0 0.117647 0 0 0 0 0.611765 0 0 0 0 0.843137 0 0 0 1 0"/>
<feBlend mode="normal" in2="BackgroundImageFix" result="effect1_dropShadow_258_2804"/>
<feBlend mode="normal" in="SourceGraphic" in2="effect1_dropShadow_258_2804" result="shape"/>
</filter>
<filter id="filter1_d_258_2804" x="109.027" y="91.8076" width="22.2922" height="24.3807" filterUnits="userSpaceOnUse" color-interpolation-filters="sRGB">
<feFlood flood-opacity="0" result="BackgroundImageFix"/>
<feColorMatrix in="SourceAlpha" type="matrix" values="0 0 0 0 0 0 0 0 0 0 0 0 0 0 0 0 0 0 127 0" result="hardAlpha"/>
<feOffset/>
<feGaussianBlur stdDeviation="1.5"/>
<feComposite in2="hardAlpha" operator="out"/>
<feColorMatrix type="matrix" values="0 0 0 0 0.117647 0 0 0 0 0.611765 0 0 0 0 0.843137 0 0 0 1 0"/>
<feBlend mode="normal" in2="BackgroundImageFix" result="effect1_dropShadow_258_2804"/>
<feBlend mode="normal" in="SourceGraphic" in2="effect1_dropShadow_258_2804" result="shape"/>
</filter>
<linearGradient id="paint0_linear_258_2804" x1="110.421" y1="37.4695" x2="52.1865" y2="110.636" gradientUnits="userSpaceOnUse">
<stop stop-color="#001F76"/>
<stop offset="1" stop-color="#00E3AE"/>
</linearGradient>
<linearGradient id="paint1_linear_258_2804" x1="138.002" y1="0.694999" x2="4.69482" y2="134.003" gradientUnits="userSpaceOnUse">
<stop stop-color="#001F76"/>
<stop offset="1" stop-color="#00E3AE"/>
</linearGradient>
<linearGradient id="paint2_linear_258_2804" x1="4.69488" y1="134.003" x2="138.002" y2="0.694946" gradientUnits="userSpaceOnUse">
<stop stop-color="#001F76"/>
<stop offset="1" stop-color="#00E3AE"/>
</linearGradient>
<linearGradient id="paint3_linear_258_2804" x1="17.2228" y1="54.4845" x2="-2.2929" y2="67.0303" gradientUnits="userSpaceOnUse">
<stop stop-color="#001F76"/>
<stop offset="1" stop-color="#00E3AE"/>
</linearGradient>
<linearGradient id="paint4_linear_258_2804" x1="133.551" y1="99.2223" x2="110.404" y2="97.6525" gradientUnits="userSpaceOnUse">
<stop stop-color="#001F76"/>
<stop offset="1" stop-color="#00E3AE"/>
</linearGradient>
<linearGradient id="paint5_linear_258_2804" x1="44.8036" y1="59.0813" x2="64.3193" y2="46.5354" gradientUnits="userSpaceOnUse">
<stop stop-color="#001F76"/>
<stop offset="1" stop-color="#00E3AE"/>
</linearGradient>
</defs>
</svg>
